<svg width="177" height="41" viewBox="0 0 177 41" fill="none" xmlns="http://www.w3.org/2000/svg">
<g clip-path="url(#clip0_1_1717)">
<path fill-rule="evenodd" clip-rule="evenodd" d="M137.717 28.2733C142.279 28.2733 145.989 24.634 145.989 20.1609C145.989 15.6876 142.279 12.0484 137.717 12.0484C133.156 12.0484 129.444 15.6876 129.444 20.1609C129.444 24.634 133.156 28.2733 137.717 28.2733ZM145.989 0H146.213H149.908V32.144H145.989V28.9345C143.727 30.9903 140.811 32.1165 137.717 32.1165C130.995 32.1165 125.526 26.7532 125.526 20.1609C125.526 13.5682 130.995 8.20508 137.717 8.20508C140.811 8.20508 143.727 9.33111 145.989 11.3871V0ZM56.4414 28.1317C61.0027 28.1317 64.7137 24.4925 64.7137 20.0192C64.7137 15.5461 61.0027 11.907 56.4414 11.907C51.8799 11.907 48.169 15.5461 48.169 20.0192C48.169 24.4925 51.8799 28.1317 56.4414 28.1317ZM48.169 11.2459C50.4308 9.1899 53.3479 8.06371 56.4414 8.06371C63.1636 8.06371 68.6326 13.427 68.6326 20.0192C68.6326 26.6116 63.1636 31.9749 56.4414 31.9749C53.3479 31.9749 50.4308 30.849 48.169 28.7927V40.18H44.25V8.036H48.169V11.2459ZM76.1102 18.1526C76.9923 14.5197 80.2788 11.9111 84.0275 11.9111C87.7273 11.9111 90.8264 14.464 91.6524 18.1526H76.1102ZM84.0275 8.036C77.4059 8.036 72.0192 13.4437 72.0192 20.09C72.0192 26.7366 77.4059 32.144 84.0275 32.144C87.7355 32.144 91.1386 30.7505 93.3659 28.3208L94.5229 27.0579L94.6721 26.8949L94.5098 26.7446L91.9941 24.4218L91.8319 24.2717L91.6819 24.4347L90.5248 25.6978C89.049 27.3078 86.6202 28.2692 84.0275 28.2692C80.2788 28.2692 76.9925 25.6606 76.1102 22.0274H95.7242V20.09C95.7242 13.3307 90.5863 8.036 84.0275 8.036ZM173.081 20.0901C173.081 24.6 169.37 28.2691 164.808 28.2691C160.247 28.2691 156.536 24.6 156.536 20.0901C156.536 15.58 160.247 11.9109 164.808 11.9109C169.37 11.9109 173.081 15.58 173.081 20.0901ZM164.808 8.036C158.086 8.036 152.617 13.4434 152.617 20.0901C152.617 26.7366 158.086 32.144 164.808 32.144C171.531 32.144 177 26.7366 177 20.0901C177 13.4434 171.531 8.036 164.808 8.036ZM110.286 8.036C107.563 8.036 104.968 9.07371 102.926 10.969V8.036H99.111V32.144H102.926V19.8413C102.926 15.452 106.228 11.8808 110.286 11.8808C114.344 11.8808 117.647 15.452 117.647 19.8413V32.144H121.461V19.8413C121.461 13.3319 116.448 8.036 110.286 8.036Z" fill="#1A2022"/>
<path fill-rule="evenodd" clip-rule="evenodd" d="M0 22.9598H18.4374V40.9999L36.875 22.9598V4.91992H18.4374L0 22.9598Z" fill="#FF4876"/>
</g>
<defs>
<clipPath id="clip0_1_1717">
<rect width="177" height="41" fill="white"/>
</clipPath>
</defs>
</svg>
