<svg width="270" height="41" viewBox="0 0 270 41" fill="none" xmlns="http://www.w3.org/2000/svg">
<path d="M2.25536 4.60081C2.07881 4.59852 1.9039 4.63515 1.74292 4.70809C1.58194 4.78104 1.43878 4.88856 1.3235 5.02309C1.20821 5.15762 1.1236 5.31592 1.0756 5.48685C1.02759 5.65779 1.01737 5.83722 1.04563 6.01254L6.18092 37.3749C6.24491 37.7586 6.44126 38.1074 6.73551 38.3601C7.02974 38.6128 7.40306 38.753 7.78987 38.7563H32.426C32.7159 38.76 32.9976 38.6587 33.2197 38.4711C33.4417 38.2836 33.5894 38.0218 33.6358 37.7338L38.7831 6.02472C38.8114 5.84938 38.8011 5.66995 38.7532 5.49902C38.7051 5.32808 38.6206 5.1698 38.5053 5.03526C38.39 4.90072 38.2468 4.79322 38.0858 4.72026C37.9249 4.64731 37.75 4.6107 37.5734 4.61299L2.25536 4.60081ZM23.8793 27.2675H16.016L13.8869 16.0833H25.7845L23.8793 27.2675Z" fill="#2684FF"/>
<path d="M37.1377 16.0831H25.7844L23.8791 27.2675H16.0159L6.7312 38.3606C7.02548 38.6165 7.40068 38.7588 7.7897 38.762H32.4319C32.7219 38.7658 33.0034 38.6646 33.2255 38.4771C33.4475 38.2895 33.5952 38.0278 33.6416 37.7398L37.1377 16.0831Z" fill="url(#paint0_linear_1_1666)"/>
<path d="M71.7361 3.57886C78.8675 3.57886 82.3274 7.11427 82.3274 12.7916C82.3274 17.0511 80.4099 19.6434 76.4723 20.6108C81.6378 21.4689 84.1904 24.3046 84.1904 29.2881C84.1904 34.9108 80.4099 38.7687 72.5891 38.7687H58.1631V3.57886H71.7361ZM62.9536 8.18524V18.6758H71.0951C75.6194 18.6758 77.4823 16.5887 77.4823 13.1993C77.4823 9.80995 75.4621 8.16698 71.0951 8.16698L62.9536 8.18524ZM62.9536 22.9658V33.9189H72.7463C77.3251 33.9189 79.3999 32.2577 79.3999 28.7223C79.3999 24.9739 77.428 22.9415 72.6434 22.9415L62.9536 22.9658Z" fill="#253858"/>
<path d="M92.0174 1.70469C92.4448 1.67393 92.8736 1.73594 93.2749 1.88653C93.6763 2.03712 94.0407 2.27275 94.3437 2.57747C94.6466 2.88218 94.8808 3.24884 95.0304 3.65259C95.1802 4.05635 95.2418 4.48776 95.2112 4.91759C95.2112 5.76971 94.8747 6.58692 94.2757 7.18945C93.6768 7.792 92.8644 8.13049 92.0174 8.13049C91.1704 8.13049 90.3582 7.792 89.7593 7.18945C89.1603 6.58692 88.8238 5.76971 88.8238 4.91759C88.7932 4.48776 88.8549 4.05635 89.0046 3.65259C89.1542 3.24884 89.3884 2.88218 89.6913 2.57747C89.9943 2.27275 90.3587 2.03712 90.7601 1.88653C91.1614 1.73594 91.5902 1.67393 92.0174 1.70469ZM89.6767 11.9823H94.2555V38.7566H89.6767V11.9823Z" fill="#253858"/>
<path d="M111.736 34.2653C112.704 34.2363 113.666 34.1099 114.609 33.8881V38.3301C113.606 38.6185 112.568 38.762 111.524 38.7562C105.827 38.7562 103.056 35.385 103.056 30.4014V16.2658H98.7435V12.0063H103.056V6.31067H107.502V11.988H114.579V16.2475H107.502V30.2979C107.502 32.6528 108.887 34.2653 111.736 34.2653Z" fill="#253858"/>
<path d="M133.481 39.2917C129.597 39.2917 126.615 37.527 125.012 34.0464V38.7563H120.434V0.797729H125.043V16.8014C126.748 13.266 129.942 11.4466 134.037 11.4466C141.114 11.4466 144.682 17.4951 144.682 25.3691C144.658 32.9206 140.932 39.2917 133.481 39.2917ZM132.785 15.7304C128.672 15.7304 125.043 18.3592 125.043 24.2982V26.4401C125.043 32.3853 128.393 35.0079 132.301 35.0079C137.467 35.0079 140.128 31.582 140.128 25.3691C140.08 18.9434 137.527 15.7304 132.785 15.7304Z" fill="#253858"/>
<path d="M149.449 11.9821H154.028V28.1804C154.028 32.9998 155.945 35.1417 160.306 35.1417C164.54 35.1417 167.492 32.3061 167.492 26.8965V11.9821H172.072V38.7562H167.492V34.3689C166.677 35.8889 165.461 37.1533 163.977 38.023C162.494 38.8925 160.801 39.3336 159.085 39.2978C152.963 39.2978 149.449 35.0384 149.449 27.6755V11.9821Z" fill="#253858"/>
<path d="M197.778 38.0628C196.182 38.9207 193.731 39.2798 191.283 39.2798C181.81 39.2798 177.37 33.499 177.37 25.2841C177.37 17.1972 181.785 11.4163 191.283 11.4163C193.47 11.3539 195.643 11.806 197.627 12.7368V16.9963C195.737 16.1068 193.665 15.6734 191.578 15.7306C184.658 15.7306 181.839 20.1241 181.839 25.3145C181.839 30.5051 184.738 34.8742 191.712 34.8742C193.769 34.9288 195.82 34.6029 197.761 33.9127L197.778 38.0628Z" fill="#253858"/>
<path d="M202.998 38.7563V0.797729H207.576V24.5295L219.021 12.0003H224.985L212.47 25.138L225.511 38.7563H219.281L207.571 26.2271V38.7563H202.998Z" fill="#253858"/>
<path d="M240.681 39.2915C230.725 39.2915 226.364 33.5107 226.364 25.2958C226.364 17.2089 230.833 11.4281 238.926 11.4281C247.122 11.4281 250.419 17.1602 250.419 25.2958V27.3831H230.991C231.631 31.9348 234.559 34.8799 240.838 34.8799C243.6 34.8774 246.339 34.3871 248.93 33.4316V37.6912C246.748 38.8656 243.396 39.2915 240.681 39.2915ZM230.942 23.4705H245.792C245.525 18.4929 243.287 15.6511 238.714 15.6511C233.864 15.6268 231.421 18.7849 230.942 23.4461V23.4705Z" fill="#253858"/>
<path d="M266.388 34.2653C267.356 34.2363 268.319 34.1099 269.261 33.8881V38.3301C268.258 38.6185 267.219 38.762 266.176 38.7562C260.479 38.7562 257.708 35.385 257.708 30.4014V16.2658H253.396V12.0063H257.708V6.31067H262.179V11.988H269.255V16.2475H262.179V30.2979C262.184 32.6528 263.558 34.2653 266.388 34.2653Z" fill="#253858"/>
<defs>
<linearGradient id="paint0_linear_1_1666" x1="39.7628" y1="19.2108" x2="20.9148" y2="33.8391" gradientUnits="userSpaceOnUse">
<stop offset="0.18" stop-color="#0052CC"/>
<stop offset="1" stop-color="#2684FF"/>
</linearGradient>
</defs>
</svg>
