<svg width="204" height="60" viewBox="0 0 204 60" fill="none" xmlns="http://www.w3.org/2000/svg">
<path d="M130.034 48.8709C130.033 48.815 130.019 48.7601 129.994 48.7102L130.014 26.3529V24.3649L129.914 17.5709C129.909 16.8137 129.603 16.0897 129.063 15.5581C128.524 15.0265 127.796 14.7308 127.039 14.7362C126.282 14.7415 125.558 15.0474 125.026 15.5866C124.494 16.1258 124.199 16.8541 124.204 17.6113V46.4859H124.184L124.123 46.9884V49.522C124.127 49.6763 124.12 49.8306 124.104 49.9841C124.009 51.0741 123.515 52.0907 122.716 52.839C122.133 53.3639 121.417 53.7186 120.646 53.8645C120.368 53.9229 120.085 53.9497 119.801 53.9444C119.544 53.9488 119.288 53.922 119.037 53.8645C118.186 53.7408 117.401 53.3374 116.805 52.718C116.05 52.005 115.609 51.0214 115.578 49.9834C115.561 49.89 115.555 49.7951 115.558 49.7003V46.4838H115.496V17.6091C115.501 16.849 115.204 16.1178 114.67 15.5765C114.137 15.0352 113.41 14.7281 112.65 14.7227C112.273 14.7201 111.9 14.7916 111.551 14.9332C111.202 15.0748 110.885 15.2837 110.617 15.548C110.076 16.0817 109.769 16.8086 109.763 17.5688L109.663 24.3628V48.4689L109.643 48.8709L109.622 49.052L109.582 49.5949C109.584 50.2215 109.638 50.8469 109.743 51.4646C109.803 51.7668 109.863 52.0676 109.944 52.3698C110.098 52.9601 110.314 53.5327 110.587 54.0782C110.729 54.3613 110.87 54.621 111.029 54.8829L111.454 55.546C111.514 55.626 111.574 55.6875 111.635 55.7675C111.796 55.9685 111.957 56.1695 112.118 56.3507C112.215 56.4741 112.322 56.5885 112.44 56.6925C112.456 56.7282 112.484 56.7567 112.52 56.7725C112.52 56.7923 112.56 56.8326 112.58 56.8524C112.684 56.964 112.798 57.065 112.922 57.1539C113.155 57.3846 113.404 57.5995 113.666 57.7972C114.013 58.0749 114.383 58.3236 114.772 58.541C115.013 58.6826 115.254 58.8022 115.515 58.9232L115.636 58.9834C115.883 59.1011 116.139 59.2019 116.4 59.2848C116.82 59.4295 117.25 59.5437 117.687 59.6267C118.016 59.7109 118.352 59.7647 118.692 59.7873C118.991 59.8304 119.294 59.8437 119.596 59.8269C119.689 59.8443 119.784 59.851 119.879 59.8468C119.947 59.8501 120.015 59.8434 120.08 59.8269C120.383 59.8437 120.686 59.8304 120.985 59.7873C121.325 59.7646 121.661 59.7109 121.99 59.6267C122.427 59.5437 122.857 59.4294 123.277 59.2848C123.538 59.2019 123.794 59.1011 124.041 58.9834L124.162 58.9232C124.423 58.8029 124.664 58.6819 124.905 58.541C125.286 58.3118 125.655 58.0635 126.011 57.7972C126.273 57.5996 126.521 57.3847 126.755 57.1539C126.898 57.037 127.033 56.9092 127.157 56.7718C127.298 56.6302 127.418 56.4887 127.559 56.3471C127.719 56.166 127.881 55.965 128.041 55.764C128.101 55.684 128.162 55.6224 128.222 55.5425C128.363 55.3415 128.505 55.1204 128.646 54.8793C128.807 54.629 128.949 54.3669 129.071 54.0952C129.208 53.8279 129.329 53.5526 129.433 53.2707C129.545 52.9887 129.64 52.6998 129.716 52.4059C129.992 51.4528 130.121 50.4631 130.098 49.471C130.078 49.3104 130.078 49.1695 130.058 49.0464C130.041 48.9893 130.034 48.9302 130.034 48.8709V48.8709Z" fill="#262626"/>
<path d="M104.718 5.77645C104.221 4.6173 103.483 3.57675 102.554 2.72337C101.611 1.86754 100.519 1.1914 99.3325 0.728334C98.0877 0.241237 96.7619 -0.00585102 95.4252 0.00010517L84.9844 0.156504L84.995 0.661101C85.0431 2.94842 85.0792 6.52945 85.104 11.3107C85.1287 16.092 85.116 22.3822 85.0679 29.9943C85.0207 37.5866 84.9971 43.8048 84.9971 48.6489V59.7741H95.2066C97.7692 59.8073 100.245 58.845 102.112 57.0898C103.08 56.2428 103.87 55.2127 104.438 54.0588C105.005 52.9048 105.339 51.6499 105.419 50.3665L105.41 10.8189C105.473 10.4248 105.5 10.026 105.492 9.6271C105.502 8.304 105.238 6.99311 104.718 5.77645V5.77645ZM99.5951 49.6255C99.605 50.1877 99.4959 50.7457 99.2749 51.2627C99.0539 51.7798 98.726 52.2442 98.3127 52.6255C97.9117 53.03 97.4329 53.3492 96.9053 53.5639C96.3777 53.7785 95.8122 53.8842 95.2427 53.8746H90.9631L90.8923 9.56199V5.23858H93.2582C93.8364 5.23858 94.4875 5.26406 95.2122 5.30935H95.2448C95.8078 5.29769 96.3672 5.402 96.8882 5.61579C97.4091 5.82959 97.8805 6.1483 98.2731 6.55209C99.0943 7.34044 99.5701 8.4218 99.5965 9.55987L99.5951 49.6255Z" fill="#262626"/>
<path d="M154.545 24.4482L154.541 24.2443C154.397 22.9948 154.02 21.7832 153.43 20.6725C152.859 19.5924 152.093 18.6272 151.17 17.8254C150.242 17.0278 149.185 16.3938 148.044 15.9507C146.873 15.4912 145.627 15.2562 144.369 15.2578H143.923C142.62 15.28 141.336 15.5703 140.15 16.1109C138.965 16.6514 137.903 17.4304 137.032 18.3993C136.097 19.3347 135.363 20.4512 134.875 21.6804C134.387 22.9095 134.156 24.2254 134.195 25.5472V26.0497H140.091V25.4C140.081 24.8386 140.19 24.2814 140.411 23.765C140.631 23.2486 140.958 22.7847 141.371 22.4036C141.772 21.9998 142.252 21.6814 142.779 21.4675C143.307 21.2536 143.873 21.1485 144.442 21.1587C145.005 21.1469 145.565 21.251 146.085 21.4645C146.606 21.6781 147.078 21.9965 147.471 22.4C147.876 22.7861 148.196 23.2521 148.411 23.7686C148.626 24.2851 148.731 24.8406 148.72 25.4V26.4779L140.64 30.5557C138.786 31.2973 137.187 32.563 136.04 34.1983C134.86 35.8746 134.241 37.8811 134.271 39.9308L134.2 49.7871C134.192 51.7662 134.761 53.7048 135.838 55.3651C136.915 57.0255 138.453 58.3354 140.264 59.1344C142.075 59.9334 144.079 60.1866 146.032 59.863C147.984 59.5395 149.8 58.6532 151.256 57.3129C153.238 55.5301 154.489 53.7191 154.551 50.6604L154.536 26.4708C154.649 25.8031 154.654 25.1216 154.551 24.4524L154.545 24.4482ZM148.718 49.7807C148.728 50.3466 148.621 50.9085 148.405 51.4318C148.19 51.9551 147.87 52.4288 147.464 52.8238C147.077 53.2357 146.608 53.5618 146.088 53.7812C145.567 54.0006 145.006 54.1085 144.441 54.0977C143.869 54.1067 143.302 53.9978 142.774 53.7779C142.247 53.558 141.77 53.2318 141.374 52.8196C140.961 52.4303 140.633 51.9594 140.412 51.4369C140.191 50.9144 140.081 50.3516 140.088 49.7842V40.0178C140.042 39.3065 140.199 38.5966 140.541 37.9713C140.883 37.346 141.396 36.8311 142.02 36.487L148.716 33.0744L148.718 49.7807Z" fill="#262626"/>
<path d="M170.13 15.0959C168.285 14.8956 166.421 15.2104 164.745 16.0054L164.759 3.31609C164.765 2.92539 164.693 2.5374 164.548 2.17468C164.402 1.81197 164.186 1.48178 163.912 1.20335C163.638 0.92492 163.311 0.703802 162.951 0.552873C162.59 0.401944 162.204 0.324219 161.813 0.324219C161.422 0.324219 161.035 0.401944 160.675 0.552873C160.314 0.703802 159.988 0.92492 159.713 1.20335C159.439 1.48178 159.223 1.81197 159.078 2.17468C158.933 2.5374 158.861 2.92539 158.867 3.31609L158.874 24.4406L158.803 49.1107C158.688 51.6767 159.544 54.1919 161.201 56.1545C162.142 57.301 163.329 58.2214 164.674 58.8479C166.018 59.4745 167.486 59.7911 168.97 59.7745H169.507C172.112 59.6255 174.56 58.4866 176.352 56.5911C178.144 54.6956 179.143 52.1868 179.146 49.5785L179.196 26.5234C179.213 26.2834 179.218 26.0485 179.218 25.8213V25.2382C179.255 22.6925 178.303 20.2318 176.563 18.3734C174.887 16.5372 172.601 15.3725 170.13 15.0959ZM173.32 49.1928V49.7052C173.306 50.5091 173.048 51.2898 172.579 51.9429C172.12 52.6093 171.487 53.1378 170.75 53.4716C170.013 53.8054 169.199 53.9319 168.395 53.8375C167.471 53.7184 166.614 53.2927 165.96 52.6287C165.554 52.2564 165.231 51.8028 165.011 51.2974C164.792 50.7921 164.681 50.2462 164.687 49.6952V25.3394C164.658 24.293 165.013 23.2723 165.685 22.4696C166.089 21.9831 166.596 21.593 167.17 21.3277C167.744 21.0624 168.37 20.9285 169.002 20.936C169.561 20.9247 170.117 21.0294 170.633 21.2434C171.15 21.4574 171.617 21.7761 172.004 22.1794C172.414 22.5789 172.735 23.0593 172.949 23.5899C173.163 24.1205 173.263 24.6898 173.245 25.2615L173.316 25.764L173.32 49.1928Z" fill="#262626"/>
<path d="M203.82 25.4694C203.837 25.1274 203.813 24.7846 203.749 24.4482L203.745 24.2422C203.6 22.9936 203.223 21.7831 202.634 20.6725C202.062 19.5916 201.294 18.6263 200.369 17.8254C199.442 17.0282 198.385 16.3942 197.245 15.9507C196.074 15.4911 194.827 15.2561 193.57 15.2578H193.124C191.821 15.2799 190.536 15.5702 189.351 16.1107C188.165 16.6512 187.103 17.4303 186.232 18.3993C185.297 19.3347 184.563 20.4512 184.075 21.6804C183.588 22.9095 183.356 24.2254 183.395 25.5472V26.0497H189.291V25.4C189.28 24.8385 189.389 24.2811 189.61 23.7647C189.831 23.2482 190.158 22.7843 190.571 22.4036C190.973 21.9999 191.452 21.6815 191.979 21.4676C192.507 21.2536 193.072 21.1486 193.642 21.1587C194.205 21.1467 194.765 21.2507 195.286 21.4642C195.807 21.6778 196.279 21.9963 196.671 22.4C197.077 22.786 197.397 23.2521 197.612 23.7685C197.828 24.285 197.933 24.8406 197.922 25.4V26.4779L189.841 30.5557C187.986 31.2977 186.388 32.5634 185.241 34.1983C184.061 35.8746 183.441 37.8811 183.471 39.9308L183.4 49.7871C183.392 51.766 183.962 53.7044 185.039 55.3646C186.116 57.0247 187.654 58.3345 189.465 59.1334C191.275 59.9323 193.28 60.1856 195.232 59.8622C197.184 59.5389 199 58.6529 200.456 57.3129C201.416 56.4753 202.201 55.4566 202.767 54.315C203.332 53.1734 203.666 51.9315 203.751 50.6604L203.737 26.4694C203.803 26.1404 203.831 25.8048 203.82 25.4694V25.4694ZM197.924 49.78C197.933 50.3461 197.827 50.908 197.611 51.4314C197.395 51.9547 197.074 52.4283 196.668 52.8231C196.281 53.235 195.812 53.5612 195.291 53.7806C194.771 54.0001 194.21 54.1078 193.645 54.097C193.073 54.1058 192.506 53.9968 191.978 53.7769C191.45 53.557 190.974 53.2309 190.577 52.8189C190.165 52.4296 189.837 51.9588 189.616 51.4362C189.395 50.9137 189.285 50.3509 189.293 49.7835V39.998C189.289 39.2962 189.464 38.6049 189.802 37.9899C190.14 37.3749 190.63 36.8565 191.225 36.4842L197.92 33.0716H197.923L197.924 49.78Z" fill="#262626"/>
<path d="M65.5988 32.3336C68.4823 32.228 71.3542 32.7525 74.0142 33.8705C75.9622 34.6534 76.2463 35.1095 76.1597 37.1718C75.841 44.7397 72.2106 50.5224 66.2547 54.8686C63.1046 57.3285 59.3901 58.9626 55.4484 59.6228C51.5066 60.283 47.4623 59.9483 43.6827 58.6491C41.0119 57.7866 40.6239 56.7751 40.8722 53.9645C41.7959 43.4787 50.9423 34.6615 61.6117 32.6211C62.9337 32.4451 64.2652 32.3491 65.5988 32.3336ZM69.0363 39.4512C68.5936 39.2469 68.1286 39.095 67.6507 38.9985C65.1915 38.7006 62.6976 38.8941 60.3138 39.5678C54.6627 41.4384 50.5439 44.9463 48.4435 50.6078C48.2461 51.3296 48.1177 52.0684 48.0601 52.8144C58.0356 55.603 68.1761 47.2592 69.0363 39.4512Z" fill="#FC8F02"/>
<path d="M25.6157 59.886C15.0399 59.2313 7.21682 54.31 2.59573 44.644C1.49915 42.2697 0.948732 39.6797 0.984931 37.0646C0.933869 36.4335 1.09307 35.8032 1.4377 35.2721C1.78234 34.7409 2.29304 34.3387 2.89018 34.1282C7.64606 32.0281 13.0075 31.7475 17.9566 33.3395C26.0788 35.7644 32.0774 40.7665 35.0877 48.8517C35.7208 50.9511 36.1432 53.1083 36.3486 55.2915C36.4529 55.9278 36.3164 56.5801 35.9656 57.1211C35.6148 57.6622 35.075 58.053 34.4515 58.2175C31.6623 59.4086 28.6472 59.978 25.6157 59.886ZM28.8974 52.8747C29.3304 49.4187 25.8744 44.2433 21.1159 41.5021C17.0594 39.1661 12.7351 38.0784 8.05398 39.486C9.24101 48.0781 19.7868 55.4693 28.8974 52.8747Z" fill="#FFC600"/>
<path d="M50.0265 20.6214C50.1313 23.8008 49.5806 26.9678 48.4085 29.9252C47.2365 32.8825 45.4682 35.567 43.2137 37.8114C42.3573 38.6535 41.4348 39.4258 40.4552 40.1208C39.9422 40.6227 39.2525 40.903 38.5348 40.9013C37.8171 40.8995 37.1287 40.6159 36.6181 40.1115C33.9626 38.2296 31.7457 35.7953 30.1197 32.9758C28.4937 30.1562 27.497 27.0182 27.1981 23.7772C26.4372 17.2128 27.6392 10.9462 31.7592 5.58728C33.3091 3.76356 35.0382 2.10015 36.9207 0.622092C38.1042 -0.399813 39.3709 -0.0487852 40.5764 0.853032C43.3909 2.90912 45.7025 5.57656 47.3375 8.65477C48.9725 11.733 49.8883 15.1418 50.0161 18.6249C50.068 19.2831 50.0265 19.954 50.0265 20.6214ZM38.5638 32.8612C45.1998 27.8671 46.0982 14.0674 38.5638 7.96133C32.0086 12.9704 30.9116 26.6443 38.5649 32.8577L38.5638 32.8612Z" fill="#A7C521"/>
</svg>
