<svg width="187" height="41" viewBox="0 0 187 41" fill="none" xmlns="http://www.w3.org/2000/svg">
<g clip-path="url(#clip0_1_1706)">
<path d="M75.5858 15.6154H81.7151C80.6926 9.03909 75.0503 4.4585 67.7075 4.4585C59.0194 4.4585 52.5 10.9045 52.5 21.7002C52.5 32.3031 58.7262 38.8794 67.8851 38.8794C76.1051 38.8794 81.9895 33.5439 81.9895 24.9069V20.8829H68.5174V25.6264H76.1696C76.0728 30.4051 72.9113 33.4299 67.9174 33.4299C62.3585 33.4299 58.5486 29.2267 58.5486 21.6351C58.5486 14.0921 62.4231 9.90525 67.7883 9.90525C71.7919 9.90525 74.531 12.0639 75.5858 15.6154Z" fill="#171321"/>
<path d="M86.0416 38.4205H91.9099V13.3046H86.0416V38.4205ZM89.0013 9.31321C90.8659 9.31321 92.3888 7.87142 92.3888 6.10652C92.3888 4.34162 90.8659 2.88354 89.0013 2.88354C87.1367 2.88354 85.5977 4.32262 85.5977 6.10652C85.5977 7.89043 87.1098 9.31321 88.9906 9.31321H89.0013Z" fill="#171321"/>
<path d="M109.482 13.3047H104.569V7.27148H98.701V13.3047H95.1682V17.8853H98.701V31.8578C98.6687 36.585 102.075 38.9174 106.482 38.7789C107.656 38.7556 108.821 38.5568 109.937 38.1897L108.947 33.5576C108.386 33.7045 107.81 33.7821 107.23 33.7884C105.753 33.7884 104.569 33.2643 104.569 30.8749V17.8717H109.482V13.3047Z" fill="#171321"/>
<path d="M114.024 38.4206H134.662V33.3323H120.041V4.91467H114.024V38.4206Z" fill="#171321"/>
<path d="M145.903 38.9281C149.81 38.9281 152.143 37.0791 153.214 34.9693H153.407V38.4204H159.058V21.6022C159.058 14.9608 153.692 12.9651 148.941 12.9651C143.705 12.9651 139.685 15.3192 138.388 19.8998L143.869 20.6872C144.45 18.9685 146.105 17.4968 148.981 17.4968C151.707 17.4968 153.197 18.9033 153.197 21.3742V21.4719C153.197 23.1716 151.43 23.2558 147.036 23.7283C142.206 24.2523 137.586 25.7077 137.586 31.3689C137.57 36.3106 141.151 38.9281 145.903 38.9281ZM147.832 34.5838C145.384 34.5838 143.632 33.4542 143.632 31.2793C143.632 29.004 145.594 28.0563 148.206 27.6789C149.748 27.4671 152.829 27.0734 153.588 26.4544V29.414C153.604 32.2025 151.365 34.5756 147.832 34.5756V34.5838Z" fill="#171321"/>
<path d="M163.379 38.4206H169.15V34.4618H169.489C170.415 36.2946 172.344 38.8632 176.625 38.8632C182.493 38.8632 186.887 34.1658 186.887 25.8898C186.887 17.5133 182.364 12.9653 176.609 12.9653C172.215 12.9653 170.383 15.6317 169.489 17.4482H169.242V4.91467H163.379V38.4206ZM169.134 25.8573C169.134 20.9698 171.209 17.8229 174.986 17.8229C178.893 17.8229 180.906 21.1762 180.906 25.8573C180.906 30.5383 178.864 34.0029 174.986 34.0029C171.241 34.0029 169.134 30.7311 169.134 25.8573Z" fill="#171321"/>
<path d="M41.4361 16.3918L41.3796 16.2398L35.6754 1.22453C35.56 0.929705 35.3544 0.679603 35.0888 0.510427C34.8905 0.382369 34.6653 0.302956 34.4312 0.278555C34.1971 0.254151 33.9606 0.285438 33.7405 0.369906C33.5207 0.454377 33.3232 0.589677 33.1645 0.764967C33.0057 0.940254 32.8898 1.15065 32.826 1.3793L28.9757 13.2747H13.3834L9.53303 1.3793C9.4688 1.151 9.35262 0.940992 9.19371 0.766039C9.0348 0.591086 8.83757 0.456025 8.61775 0.371625C8.39795 0.287224 8.16166 0.255822 7.92768 0.27992C7.69373 0.304021 7.46857 0.382953 7.27019 0.510427C7.00455 0.679603 6.79909 0.929705 6.68363 1.22453L0.982161 16.2425L0.922967 16.3918C0.10212 18.5567 0.000994593 20.9322 0.634836 23.1601C1.26867 25.3881 2.60312 27.3477 4.43697 28.7434L4.45849 28.7596L4.5069 28.7977L13.1842 35.3604L17.4893 38.6431L20.1046 40.6388C20.4114 40.8728 20.7855 40.9994 21.1701 40.9994C21.5547 40.9994 21.9287 40.8728 22.2356 40.6388L24.8509 38.6431L29.1559 35.3604L37.8952 28.7596L37.9194 28.7406C39.7531 27.3456 41.0876 25.3865 41.7221 23.1591C42.3563 20.9317 42.2559 18.5566 41.4361 16.3918Z" fill="#E24329"/>
<path d="M41.4361 16.3918L41.3796 16.2397C38.6004 16.8152 35.9816 18.0039 33.7112 19.7207L21.1863 29.2783L29.1614 35.3604L37.9006 28.7596L37.9248 28.7406C39.7577 27.3447 41.0912 25.3854 41.7245 23.1581C42.3576 20.9307 42.2565 18.556 41.4361 16.3918Z" fill="#FC6D26"/>
<path d="M13.1843 35.3603L17.4894 38.643L20.1047 40.6387C20.4115 40.8728 20.7856 40.9993 21.1702 40.9993C21.5547 40.9993 21.9288 40.8728 22.2357 40.6387L24.851 38.643L29.156 35.3603L21.1809 29.2782L13.1843 35.3603Z" fill="#FCA326"/>
<path d="M8.6478 19.7208C6.37814 18.0049 3.76035 16.8171 0.982161 16.2426L0.922967 16.3919C0.10212 18.5568 0.000994593 20.9323 0.634836 23.1602C1.26867 25.3881 2.60312 27.3478 4.43697 28.7434L4.45849 28.7597L4.5069 28.7977L13.1842 35.3604L21.1647 29.2783L8.6478 19.7208Z" fill="#FC6D26"/>
</g>
<defs>
<clipPath id="clip0_1_1706">
<rect width="187" height="41" fill="white"/>
</clipPath>
</defs>
</svg>
