<svg width="140" height="41" viewBox="0 0 140 41" fill="none" xmlns="http://www.w3.org/2000/svg">
<g clip-path="url(#clip0_1_1662)">
<path d="M15.1615 6.57861V17.7875H4.87814V6.57861H-0.000732422V33.3357H4.87946V22.4906H15.1602V33.3357H20.0417V6.57861H15.1615ZM35.6623 24.6874C35.6623 25.7599 35.2368 26.7884 34.4795 27.5468C33.7222 28.3051 32.6951 28.7312 31.6241 28.7312C30.5531 28.7312 29.5259 28.3051 28.7686 27.5468C28.0113 26.7884 27.5859 25.7599 27.5859 24.6874V13.2259H22.9566V24.6874C22.9566 26.987 23.8689 29.1925 25.4928 30.8186C27.1166 32.4447 29.319 33.3582 31.6155 33.3582C33.912 33.3582 36.1144 32.4447 37.7382 30.8186C39.3621 29.1925 40.2744 26.987 40.2744 24.6874V13.2259H35.6623V24.6874ZM69.9636 14.407C69.9636 12.0567 71.5155 11.3121 73.2153 11.3121C74.5863 11.3121 76.3957 12.357 77.5804 13.624L80.6115 10.0451C79.0979 7.9951 76.0285 6.57861 73.5151 6.57861C68.4923 6.57861 64.8602 9.524 64.8602 14.407C64.8602 23.4666 75.9176 20.5914 75.9176 25.6621C75.9176 27.2254 74.4014 28.6062 72.6659 28.6062C69.928 28.6062 69.0404 27.2664 67.783 25.8486L64.4178 29.3521C66.5706 31.9973 69.2253 33.341 72.4044 33.341C77.1763 33.341 81.0144 30.3599 81.0144 25.6992C81.0144 15.6423 69.9557 18.7675 69.9557 14.407M138.371 29.0612C135.635 29.0612 134.858 27.8761 134.858 26.0615V18.0269H139.11V13.956H134.858V8.58497L130.164 10.6945V27.0601C130.164 31.2461 133.048 33.3556 137.002 33.3556C137.623 33.3662 138.244 33.3159 138.854 33.2074L139.999 28.9858C139.483 29.0215 138.89 29.0572 138.371 29.0572M53.2838 13.3595C50.991 13.3595 49.3902 14.0261 47.8423 15.5457V6.73865H43.2064V23.0633C43.2064 29.1736 47.6178 33.3609 52.5759 33.3609C58.0755 33.3609 62.9134 29.0995 62.9134 23.3622C62.9134 17.6962 58.4612 13.3635 53.2838 13.3635M53.2547 28.6882C52.5638 28.6882 51.8797 28.5519 51.2414 28.2871C50.603 28.0224 50.023 27.6343 49.5345 27.1451C49.0459 26.6559 48.6584 26.0751 48.394 25.4359C48.1296 24.7967 47.9935 24.1116 47.9935 23.4197C47.9935 22.7278 48.1296 22.0427 48.394 21.4035C48.6584 20.7643 49.0459 20.1835 49.5345 19.6943C50.023 19.2051 50.603 18.817 51.2414 18.5522C51.8797 18.2875 52.5638 18.1512 53.2547 18.1512C54.6501 18.1512 55.9883 18.7063 56.975 19.6943C57.9617 20.6823 58.516 22.0224 58.516 23.4197C58.516 24.817 57.9617 26.157 56.975 27.1451C55.9883 28.1331 54.6501 28.6882 53.2547 28.6882ZM103.631 23.1188C103.631 17.3709 98.8036 13.1201 93.2934 13.1201C88.3366 13.1201 83.924 17.3061 83.924 23.4177V39.7516H88.5598V30.9326C90.1051 32.4496 91.7085 33.1188 93.9987 33.1188C99.1761 33.1188 103.63 28.7861 103.63 23.1188M99.2408 23.0606C99.2408 24.4579 98.6865 25.798 97.6998 26.786C96.7131 27.774 95.3749 28.3291 93.9796 28.3291C92.5842 28.3291 91.246 27.774 90.2593 26.786C89.2726 25.798 88.7183 24.4579 88.7183 23.0606C88.7183 21.6633 89.2726 20.3233 90.2593 19.3352C91.246 18.3472 92.5842 17.7921 93.9796 17.7921C95.3749 17.7921 96.7131 18.3472 97.6998 19.3352C98.6865 20.3233 99.2408 21.6633 99.2408 23.0606Z" fill="#33475B"/>
<path d="M118.611 12.8954V8.23062C119.226 7.94252 119.748 7.48527 120.114 6.91209C120.48 6.3389 120.676 5.67337 120.679 4.99294V4.88581C120.679 2.90194 119.073 1.29369 117.092 1.29369H116.985C116.034 1.29369 115.121 1.67214 114.448 2.3458C113.776 3.01945 113.398 3.93312 113.398 4.88581V4.99294C113.401 5.67337 113.597 6.3389 113.963 6.91209C114.329 7.48527 114.851 7.94252 115.466 8.23062V12.8954C113.697 13.1666 112.031 13.9012 110.636 15.0247L97.8604 5.0604C97.9516 4.73107 97.9991 4.39249 98.0044 4.05259C98.006 3.25204 97.7704 2.46901 97.3275 1.80254C96.8846 1.13607 96.2543 0.616104 95.5162 0.308417C94.7782 0.000730022 93.9656 -0.0808571 93.1812 0.0739754C92.3969 0.228808 91.676 0.613104 91.1098 1.17825C90.5436 1.7434 90.1575 2.46402 90.0003 3.24894C89.8431 4.03387 89.9219 4.84784 90.2268 5.58791C90.5316 6.32797 91.0488 6.96088 91.7129 7.40656C92.377 7.85225 93.1582 8.0907 93.9576 8.09175C94.657 8.08845 95.3433 7.90148 95.948 7.54949L108.528 17.3525C107.398 19.0621 106.808 21.073 106.836 23.1231C106.864 25.1732 107.508 27.1674 108.684 28.8457L104.858 32.6785C104.549 32.5795 104.226 32.5269 103.902 32.5225C103.245 32.523 102.604 32.7183 102.059 33.0837C101.513 33.4491 101.088 33.9682 100.837 34.5754C100.586 35.1826 100.521 35.8507 100.649 36.4952C100.777 37.1396 101.093 37.7316 101.557 38.1963C102.021 38.6609 102.612 38.9774 103.256 39.1058C103.9 39.2341 104.567 39.1685 105.173 38.9173C105.78 38.666 106.298 38.2404 106.663 37.6943C107.028 37.1481 107.223 36.5059 107.223 35.8487C107.219 35.5236 107.166 35.2009 107.067 34.8912L110.853 31.0994C112.087 32.051 113.523 32.707 115.049 33.0173C116.576 33.3275 118.153 33.2837 119.66 32.8892C121.167 32.4947 122.564 31.76 123.744 30.7413C124.924 29.7227 125.855 28.4471 126.467 27.0124C127.078 25.5776 127.354 24.0218 127.272 22.464C127.19 20.9062 126.753 19.3878 125.995 18.0252C125.237 16.6626 124.177 15.4918 122.897 14.6026C121.617 13.7135 120.151 13.1295 118.611 12.8954ZM117.042 28.2373C116.342 28.2566 115.646 28.1352 114.994 27.8805C114.342 27.6257 113.748 27.2427 113.246 26.754C112.744 26.2653 112.346 25.6809 112.073 25.0353C111.801 24.3897 111.661 23.696 111.661 22.9952C111.661 22.2945 111.801 21.6008 112.073 20.9552C112.346 20.3096 112.744 19.7252 113.246 19.2365C113.748 18.7478 114.342 18.3648 114.994 18.11C115.646 17.8553 116.342 17.7339 117.042 17.7532C118.398 17.8007 119.682 18.3734 120.625 19.3504C121.567 20.3275 122.095 21.6328 122.095 22.9914C122.096 24.3499 121.57 25.6558 120.628 26.6338C119.687 27.6118 118.403 28.1857 117.047 28.2346" fill="#FF7A59"/>
</g>
<defs>
<clipPath id="clip0_1_1662">
<rect width="140" height="41" fill="white"/>
</clipPath>
</defs>
</svg>
