<svg width="264" height="41" viewBox="0 0 264 41" fill="none" xmlns="http://www.w3.org/2000/svg">
<mask id="mask0_1_1678" style="mask-type:alpha" maskUnits="userSpaceOnUse" x="40" y="14" width="22" height="27">
<path d="M53.5173 14.7435L60.9027 31.3945C62.3972 34.764 60.8875 38.7116 57.5308 40.2118C54.1741 41.712 50.2414 40.1967 48.7468 36.8272L42.7766 23.3669L40.1455 29.589V14.7435H53.5173V14.7435Z" fill="white"/>
</mask>
<g mask="url(#mask0_1_1678)">
<path d="M53.5173 14.7437L60.9027 31.3946C62.3972 34.7641 60.8875 38.7117 57.5308 40.2119C54.1741 41.7121 50.2414 40.1968 48.7468 36.8273L42.7766 23.367L40.1455 29.5891V14.7437H53.5173V14.7437Z" fill="#2AA8FF"/>
</g>
<mask id="mask1_1_1678" style="mask-type:alpha" maskUnits="userSpaceOnUse" x="41" y="16" width="15" height="11">
<path d="M54.3183 16.5482L55.8463 19.9933C54.9234 19.6714 53.9318 19.4965 52.8995 19.4965C48.6355 19.4965 45.0667 22.4806 44.1576 26.4792L42.7772 23.3669L41.3142 26.8266L41.3142 16.5482H54.3183Z" fill="white"/>
</mask>
<g mask="url(#mask1_1_1678)">
<path d="M54.3183 16.5482L55.8463 19.9933C54.9234 19.6714 53.9318 19.4965 52.8995 19.4965C48.6355 19.4965 45.0667 22.4806 44.1576 26.4792L42.7772 23.3669L41.3142 26.8266L41.3142 16.5482H54.3183Z" fill="#393939" fill-opacity="0.2"/>
</g>
<mask id="mask2_1_1678" style="mask-type:alpha" maskUnits="userSpaceOnUse" x="3" y="0" width="30" height="27">
<path d="M32.0918 14.4513V26.2426H19.7882L18.5128 23.367L17.2968 26.2426H3.6875V24.2418L12.2172 4.07079C13.296 1.51964 15.7694 -0.00892136 18.3674 0.00016233C20.9233 -0.0087712 23.3657 1.4695 24.4721 3.96384L30.6432 17.8771L32.0918 14.4513Z" fill="white"/>
</mask>
<g mask="url(#mask2_1_1678)">
<path d="M32.0911 14.4516V26.2428H19.7874L18.512 23.3673L17.2961 26.2428H3.68677V24.2421L12.2164 4.07103C13.2952 1.51989 15.7686 -0.00867722 18.3667 0.000406471C20.9225 -0.00852706 23.365 1.46975 24.4713 3.96408L30.6425 17.8774L32.0911 14.4516Z" fill="#017ACE"/>
</g>
<mask id="mask3_1_1678" style="mask-type:alpha" maskUnits="userSpaceOnUse" x="18" y="0" width="38" height="42">
<path d="M30.6343 17.857L30.6432 17.8771L36.4814 4.07079C37.5602 1.51964 40.0337 -0.00892136 42.6317 0.00016233C45.1875 -0.0087712 47.63 1.4695 48.7364 3.96384L55.8399 19.9794C54.4074 18.7376 52.5409 17.9866 50.4998 17.9866C46.9533 17.9866 43.9342 20.2538 42.802 23.4234L42.777 23.367L37.0419 36.9295C35.6062 40.3246 31.7005 41.9087 28.3181 40.4675C27.9872 40.3265 27.6736 40.1618 27.3783 39.9761C26.138 39.2991 25.1016 38.2221 24.483 36.8273L18.5359 23.4192C19.4311 23.6765 20.3767 23.8143 21.3542 23.8143C25.4678 23.8143 29.0137 21.3742 30.6343 17.857Z" fill="white"/>
</mask>
<g mask="url(#mask3_1_1678)">
<path d="M30.6343 17.8571L30.6432 17.8772L36.4814 4.07091C37.5602 1.51976 40.0337 -0.00879929 42.6317 0.000284401C45.1875 -0.00864913 47.63 1.46963 48.7364 3.96396L55.8399 19.9795C54.4074 18.7377 52.5409 17.9868 50.4998 17.9868C46.9533 17.9868 43.9342 20.254 42.802 23.4235L42.777 23.3672L37.0419 36.9296C35.6062 40.3247 31.7005 41.9088 28.3181 40.4676C27.9872 40.3266 27.6736 40.1619 27.3783 39.9762C26.138 39.2992 25.1016 38.2222 24.483 36.8274L18.5359 23.4193C19.4311 23.6766 20.3767 23.8144 21.3542 23.8144C25.4678 23.8144 29.0137 21.3743 30.6343 17.8571Z" fill="#AEDEFF"/>
</g>
<mask id="mask4_1_1678" style="mask-type:alpha" maskUnits="userSpaceOnUse" x="2" y="17" width="17" height="18">
<path d="M18.4756 23.4545L14.1929 33.5823C13.1484 34.0635 11.9846 34.3316 10.7576 34.3316C6.45358 34.3316 2.92624 31.0334 2.60449 26.8024L5.54358 19.8521C6.95888 18.6757 8.77591 17.9686 10.7576 17.9686C14.3246 17.9686 17.3581 20.2595 18.4756 23.4545Z" fill="white"/>
</mask>
<g mask="url(#mask4_1_1678)">
<path d="M18.4756 23.4544L14.1929 33.5821C13.1484 34.0634 11.9846 34.3315 10.7576 34.3315C6.45358 34.3315 2.92624 31.0333 2.60449 26.8023L5.54358 19.8519C6.95888 18.6756 8.77591 17.9685 10.7576 17.9685C14.3246 17.9685 17.3581 20.2594 18.4756 23.4544Z" fill="black"/>
</g>
<mask id="mask5_1_1678" style="mask-type:alpha" maskUnits="userSpaceOnUse" x="-1" y="19" width="19" height="23">
<path d="M17.219 26.427L12.7778 36.9296C11.3421 40.3247 7.43634 41.9088 4.05403 40.4676C0.671715 39.0264 -0.90632 35.1058 0.529385 31.7106L5.46092 20.0485C6.50483 19.5846 7.65941 19.327 8.87373 19.327C13.066 19.327 16.5463 22.3972 17.219 26.427Z" fill="white"/>
</mask>
<g mask="url(#mask5_1_1678)">
<path d="M17.219 26.427L12.7778 36.9296C11.3421 40.3247 7.43634 41.9088 4.05403 40.4676C0.671715 39.0264 -0.90632 35.1058 0.529386 31.7106L5.46092 20.0485C6.50483 19.5846 7.65941 19.327 8.87373 19.327C13.066 19.327 16.5463 22.3972 17.219 26.427Z" fill="#393939"/>
</g>
<path d="M98.6095 10.2804V30.7985C98.6095 31.1141 98.3545 31.37 98.04 31.37H94.0531C93.7386 31.37 93.4836 31.1141 93.4836 30.7985V18.9146C93.4836 18.599 93.2286 18.3431 92.914 18.3431C92.7269 18.3431 92.5518 18.4353 92.4454 18.5898L88.7553 23.9505C88.6489 24.105 88.4738 24.1972 88.2867 24.1972H86.3239C86.1353 24.1972 85.959 24.1036 85.853 23.9471L82.2787 18.6739C82.1018 18.4129 81.7476 18.3452 81.4875 18.5227C81.3316 18.6292 81.2383 18.8061 81.2383 18.9953V30.7985C81.2383 31.1141 80.9833 31.37 80.6687 31.37H76.6819C76.3673 31.37 76.1123 31.1141 76.1123 30.7985V10.2804C76.1123 9.96473 76.3673 9.70884 76.6819 9.70884H81.7311C81.9214 9.70884 82.0991 9.80418 82.2047 9.96296L86.8873 16.9987C87.062 17.2612 87.4157 17.3318 87.6772 17.1565C87.7395 17.1148 87.793 17.0612 87.8345 16.9987L92.5171 9.96296C92.6228 9.80418 92.8005 9.70884 92.9907 9.70884H98.04C98.3545 9.70884 98.6095 9.96473 98.6095 10.2804ZM105.598 24.8259C105.807 25.7404 106.239 26.4548 106.894 26.9692C107.549 27.4836 108.512 27.7408 109.784 27.7408C110.525 27.7408 111.232 27.6503 111.906 27.4693C112.273 27.3706 112.857 27.1457 113.658 26.7945C113.947 26.6681 114.282 26.8002 114.408 27.0894C114.415 27.1048 114.421 27.1204 114.426 27.1363L115.347 29.8864C115.439 30.1633 115.309 30.4656 115.045 30.5876C113.965 31.0857 113.142 31.3989 112.575 31.5272C111.607 31.7463 110.449 31.8558 109.101 31.8558C107.221 31.8558 105.622 31.4986 104.302 30.7842C102.983 30.0698 101.982 29.0648 101.298 27.7693C100.615 26.4738 100.273 24.9688 100.273 23.2542C100.273 21.4634 100.624 19.925 101.327 18.6391C102.029 17.3531 102.978 16.3815 104.174 15.7242C105.37 15.067 106.709 14.7383 108.19 14.7383C110.563 14.7383 112.423 15.4289 113.771 16.8102C115.119 18.1914 115.793 20.206 115.793 22.8541V24.2544C115.793 24.57 115.538 24.8259 115.224 24.8259H105.598ZM108.19 18.8534C107.506 18.8534 106.951 19.0249 106.524 19.3678C106.214 19.6523 105.983 19.979 105.829 20.3478C105.708 20.6391 105.845 20.9738 106.135 21.0954C106.205 21.1245 106.279 21.1395 106.355 21.1395H109.913C110.227 21.1395 110.482 20.8836 110.482 20.568C110.482 20.5182 110.476 20.4687 110.463 20.4206C110.345 19.9778 110.152 19.6364 109.884 19.3964C109.452 19.0385 108.93 18.8534 108.19 18.8534ZM137.011 14.8527C139.061 14.8527 140.594 15.3956 141.61 16.4815C142.626 17.5674 143.134 19.2916 143.134 21.6539V30.7985C143.134 31.1141 142.879 31.37 142.564 31.37H138.748C138.434 31.37 138.179 31.1141 138.179 30.7985V21.6539C138.179 20.8728 138.008 20.2775 137.666 19.8679C137.324 19.4583 136.736 19.2535 135.9 19.2535C134.875 19.2535 133.831 19.7107 132.768 20.6252C132.787 20.8347 132.796 21.1776 132.796 21.6539V30.7985C132.796 31.1141 132.541 31.37 132.227 31.37H128.411C128.096 31.37 127.841 31.1141 127.841 30.7985V21.6539C127.841 20.8728 127.67 20.2775 127.329 19.8679C126.987 19.4583 126.398 19.2535 125.563 19.2535C124.557 19.2535 123.522 19.6916 122.459 20.568V30.7985C122.459 31.1141 122.204 31.37 121.89 31.37H118.074C117.759 31.37 117.504 31.1141 117.504 30.7985V15.7671C117.504 15.4515 117.759 15.1956 118.074 15.1956H121.89C122.204 15.1956 122.459 15.4515 122.459 15.7671V16.4529C123.124 15.9005 123.793 15.4956 124.467 15.2384C125.141 14.9812 125.876 14.8527 126.674 14.8527C129.199 14.8527 130.926 15.6623 131.857 17.2817C132.711 16.4434 133.542 15.829 134.348 15.4385C135.155 15.0479 136.043 14.8527 137.011 14.8527ZM154.385 14.7383C155.828 14.7383 157.105 15.0574 158.216 15.6957C159.326 16.3339 160.2 17.296 160.836 18.5819C161.472 19.8679 161.79 21.4348 161.79 23.2828C161.79 25.1498 161.472 26.7263 160.836 28.0122C160.2 29.2982 159.326 30.2603 158.216 30.8985C157.105 31.5367 155.828 31.8558 154.385 31.8558C152.848 31.8558 151.405 31.3414 150.057 30.3127V30.7985C150.057 31.1141 149.802 31.37 149.487 31.37H145.671C145.357 31.37 145.102 31.1141 145.102 30.7985V7.76563C145.102 7.44998 145.357 7.19409 145.671 7.19409H149.487C149.802 7.19409 150.057 7.44998 150.057 7.76563V16.2815C151.405 15.2527 152.848 14.7383 154.385 14.7383ZM153.303 27.455C154.404 27.455 155.235 27.1025 155.795 26.3976C156.355 25.6928 156.635 24.6545 156.635 23.2828C156.635 21.9301 156.355 20.9014 155.795 20.1965C155.235 19.4916 154.404 19.1392 153.303 19.1392C152.221 19.1392 151.139 19.5297 150.057 20.3108V26.2833C151.139 27.0644 152.221 27.455 153.303 27.455ZM168.066 24.8259C168.275 25.7404 168.707 26.4548 169.362 26.9692C170.017 27.4836 170.981 27.7408 172.253 27.7408C172.993 27.7408 173.7 27.6503 174.374 27.4693C174.741 27.3706 175.326 27.1457 176.126 26.7945C176.415 26.6681 176.75 26.8002 176.876 27.0894C176.883 27.1048 176.889 27.1204 176.894 27.1363L177.815 29.8864C177.907 30.1633 177.777 30.4656 177.513 30.5876C176.433 31.0857 175.61 31.3989 175.043 31.5272C174.075 31.7463 172.917 31.8558 171.569 31.8558C169.69 31.8558 168.09 31.4986 166.771 30.7842C165.451 30.0698 164.45 29.0648 163.766 27.7693C163.083 26.4738 162.741 24.9688 162.741 23.2542C162.741 21.4634 163.092 19.925 163.795 18.6391C164.497 17.3531 165.446 16.3815 166.642 15.7242C167.839 15.067 169.177 14.7383 170.658 14.7383C173.031 14.7383 174.891 15.4289 176.239 16.8102C177.587 18.1914 178.261 20.206 178.261 22.8541V24.2544C178.261 24.57 178.006 24.8259 177.692 24.8259H168.066ZM170.658 18.8534C169.974 18.8534 169.419 19.0249 168.992 19.3678C168.682 19.6523 168.451 19.979 168.297 20.3478C168.176 20.6391 168.313 20.9738 168.603 21.0954C168.673 21.1245 168.748 21.1395 168.823 21.1395H172.381C172.696 21.1395 172.951 20.8836 172.951 20.568C172.951 20.5182 172.944 20.4687 172.931 20.4206C172.814 19.9778 172.62 19.6364 172.352 19.3964C171.92 19.0385 171.398 18.8534 170.658 18.8534ZM190.013 15.4242V18.6819C190.013 18.9976 189.758 19.2535 189.443 19.2535H189.358C189.204 19.2535 189.049 19.2593 188.895 19.271C187.587 19.37 186.28 19.888 184.972 20.8252V30.7985C184.972 31.1141 184.717 31.37 184.403 31.37H180.587C180.272 31.37 180.017 31.1141 180.017 30.7985V15.7671C180.017 15.4515 180.272 15.1956 180.587 15.1956H184.403C184.717 15.1956 184.972 15.4515 184.972 15.7671V16.6244C185.675 16.0338 186.382 15.5909 187.094 15.2956C187.753 15.0223 188.449 14.8755 189.181 14.8551C189.24 14.8535 189.299 14.8527 189.358 14.8527H189.443C189.758 14.8527 190.013 15.1085 190.013 15.4242ZM197.704 31.8558C196.356 31.8558 195.164 31.7463 194.13 31.5272C193.506 31.3951 192.867 31.206 192.213 30.9598C191.983 30.8735 191.658 30.737 191.237 30.5504C191.031 30.4589 190.898 30.2539 190.898 30.0276V26.9611C190.898 26.6454 191.153 26.3895 191.467 26.3895C191.554 26.3895 191.64 26.4096 191.718 26.4482C191.931 26.5532 192.11 26.6365 192.254 26.6984C192.89 26.9709 193.53 27.185 194.172 27.3407C195.274 27.6074 196.451 27.7408 197.704 27.7408C198.938 27.7408 199.555 27.3693 199.555 26.6263C199.555 26.3214 199.469 26.0928 199.298 25.9404C199.128 25.788 198.852 25.6642 198.473 25.5689L195.71 24.9974C194.097 24.6735 192.919 24.121 192.179 23.3399C191.439 22.5588 191.068 21.492 191.068 20.1393C191.068 18.3104 191.633 16.953 192.763 16.0672C193.892 15.1813 195.606 14.7383 197.903 14.7383C198.852 14.7383 199.844 14.8336 200.879 15.0241C201.471 15.1332 202.046 15.261 202.605 15.4075C202.808 15.4608 203.08 15.5392 203.421 15.6427C203.662 15.7156 203.826 15.9378 203.826 16.1898V19.147C203.826 19.4626 203.571 19.7185 203.257 19.7185C203.188 19.7185 203.12 19.7061 203.056 19.6817C202.913 19.6276 202.786 19.5828 202.675 19.5475C202.223 19.403 201.729 19.2764 201.192 19.1677C200.157 18.9582 199.147 18.8534 198.159 18.8534C197.381 18.8534 196.84 18.9296 196.536 19.082C196.232 19.2344 196.08 19.4726 196.08 19.7964C196.08 20.0441 196.156 20.2203 196.308 20.3251C196.46 20.4299 196.716 20.5204 197.077 20.5966L199.839 21.1681C201.51 21.511 202.716 22.073 203.456 22.8541C204.197 23.6352 204.567 24.7973 204.567 26.3405C204.567 28.1885 203.95 29.5697 202.716 30.4841C201.482 31.3986 199.811 31.8558 197.704 31.8558ZM212.485 20.7395V25.6261C212.485 26.2548 212.59 26.6977 212.799 26.9549C213.007 27.2121 213.387 27.3407 213.938 27.3407C214.3 27.3407 214.64 27.3152 214.958 27.2642C214.958 27.2642 214.958 27.2642 214.958 27.2642C215.269 27.2143 215.561 27.4265 215.611 27.7382C215.615 27.7681 215.618 27.7983 215.618 27.8285V30.8732C215.618 31.1463 215.425 31.3813 215.158 31.434C215.133 31.439 215.11 31.4435 215.089 31.4475C214.669 31.5292 214.299 31.5938 213.98 31.6415C213.534 31.7082 213.055 31.7415 212.542 31.7415C210.853 31.7415 209.595 31.37 208.769 30.627C207.943 29.884 207.53 28.8172 207.53 27.4264V20.7395C207.53 20.4238 207.275 20.1679 206.961 20.1679H205.878C205.564 20.1679 205.309 19.912 205.309 19.5964V16.3386C205.309 16.023 205.564 15.7671 205.878 15.7671H206.961C207.275 15.7671 207.53 15.5112 207.53 15.1956V10.9091C207.53 10.5934 207.785 10.3375 208.1 10.3375H211.916C212.23 10.3375 212.485 10.5934 212.485 10.9091V15.1956C212.485 15.5112 212.74 15.7671 213.055 15.7671H215.561C215.875 15.7671 216.13 16.023 216.13 16.3386V19.5964C216.13 19.912 215.875 20.1679 215.561 20.1679H213.055C212.74 20.1679 212.485 20.4238 212.485 20.7395ZM224.238 15.1956C226.326 15.1956 227.916 15.4766 229.008 16.0386C230.099 16.6006 230.826 17.3483 231.186 18.2819C231.547 19.2154 231.727 20.4061 231.727 21.854V30.7985C231.727 31.1141 231.472 31.37 231.158 31.37H227.342C227.027 31.37 226.772 31.1141 226.772 30.7985V30.0555C226.108 30.6651 225.453 31.0985 224.807 31.3557C224.162 31.6129 223.45 31.7415 222.672 31.7415C220.849 31.7415 219.42 31.2605 218.386 30.2984C217.351 29.3363 216.834 27.998 216.834 26.2833C216.834 24.5497 217.361 23.2161 218.414 22.2826C219.468 21.3491 220.934 20.8823 222.814 20.8823C224.371 20.8823 225.69 21.1681 226.772 21.7396C226.753 21.2062 226.673 20.7823 226.53 20.468C226.388 20.1536 226.103 19.9107 225.676 19.7393C225.249 19.5678 224.627 19.4821 223.811 19.4821H221.134C220.819 19.4821 220.564 19.2262 220.564 18.9105V15.7671C220.564 15.4515 220.819 15.1956 221.134 15.1956H224.238ZM222.987 27.9122C223.956 27.9122 224.971 27.474 226.035 26.5977V25.0831C225.123 24.6449 224.203 24.4259 223.272 24.4259C222.589 24.4259 222.057 24.5735 221.678 24.8688C221.298 25.1641 221.108 25.6165 221.108 26.2262C221.108 26.8549 221.269 27.2931 221.592 27.5407C221.915 27.7884 222.38 27.9122 222.987 27.9122ZM241.28 31.8558C238.622 31.8368 236.59 31.0795 235.185 29.584C233.78 28.0884 233.078 25.9785 233.078 23.2542C233.078 20.5489 233.78 18.4581 235.185 16.9816C236.59 15.5051 238.622 14.7574 241.28 14.7383C242.248 14.7383 243.074 14.7955 243.757 14.9098C244.182 14.9809 244.618 15.0888 245.065 15.2335C245.18 15.2706 245.332 15.325 245.523 15.3966C245.745 15.4801 245.893 15.6935 245.893 15.9319V19.1785C245.893 19.4942 245.638 19.7501 245.323 19.7501C245.251 19.7501 245.178 19.7361 245.111 19.7088C245.074 19.694 245.04 19.6806 245.009 19.6688C244.63 19.525 244.265 19.4151 243.914 19.3392C243.297 19.2058 242.608 19.1392 241.849 19.1392C240.577 19.1582 239.656 19.5107 239.087 20.1965C238.517 20.8823 238.232 21.892 238.232 23.2256C238.232 24.5973 238.508 25.6451 239.058 26.3691C239.609 27.093 240.492 27.455 241.707 27.455C242.39 27.455 243.05 27.3502 243.686 27.1406C244.036 27.0253 244.393 26.8752 244.758 26.6906C244.843 26.6474 244.947 26.5908 245.071 26.5207C245.344 26.3652 245.692 26.4618 245.847 26.7364C245.864 26.7675 245.879 26.8001 245.891 26.8339L246.907 29.8322C246.997 30.0956 246.884 30.3853 246.64 30.5183C246.409 30.6443 246.222 30.7411 246.079 30.8088C244.599 31.5068 243 31.8558 241.28 31.8558ZM254.438 25.969L253.128 27.3693V30.7985C253.128 31.1141 252.873 31.37 252.558 31.37H248.742C248.428 31.37 248.173 31.1141 248.173 30.7985V7.76563C248.173 7.44998 248.428 7.19409 248.742 7.19409H252.365H252.558C252.873 7.19409 253.128 7.44998 253.128 7.76563V7.94504V21.1681L258 15.948C258.107 15.8326 258.258 15.7671 258.415 15.7671H262.77C263.084 15.7671 263.339 16.023 263.339 16.3386C263.339 16.4847 263.283 16.6252 263.183 16.7313L257.684 22.5684L263.877 30.4445C264.072 30.6923 264.029 31.0517 263.782 31.2472C263.682 31.3267 263.558 31.37 263.43 31.37H258.957C258.783 31.37 258.618 31.2898 258.51 31.1523L254.438 25.969Z" fill="#192A33"/>
</svg>
