<svg width="20" height="20" viewBox="0 0 20 20" fill="none" xmlns="http://www.w3.org/2000/svg">
<mask id="path-1-outside-1_413_21" maskUnits="userSpaceOnUse" x="0" y="0" width="20" height="20" fill="black">
<rect fill="white" width="20" height="20"/>
<path fill-rule="evenodd" clip-rule="evenodd" d="M16.2573 3.71652C17.6933 5.15255 18.6279 6.95709 18.966 8.94018C19.0154 9.21751 18.8255 9.48344 18.5481 9.52523C18.5451 9.52561 18.542 9.526 18.539 9.52638C18.5123 9.52976 18.4881 9.53283 18.4607 9.53283C18.2138 9.53283 17.9973 9.35807 17.9555 9.10734C17.6554 7.33699 16.8196 5.72241 15.5355 4.43834C14.2514 3.15807 12.6368 2.31848 10.8665 2.01836C10.5854 1.96897 10.3992 1.70684 10.4448 1.42571C10.4942 1.14838 10.7563 0.958432 11.0337 1.00782C13.0167 1.34593 14.8213 2.28049 16.2573 3.71652ZM15.2126 12.1504C14.8441 11.7667 14.3996 11.5615 13.9285 11.5615C13.4612 11.5615 13.0129 11.7629 12.6292 12.1466L11.4288 13.3432C11.3635 13.3081 11.2982 13.2746 11.234 13.2417C11.2011 13.2248 11.1684 13.208 11.1362 13.1913C10.9995 13.1229 10.8703 13.0583 10.7601 12.9899C9.63562 12.2757 8.61368 11.345 7.63353 10.1407C7.15865 9.54042 6.83954 9.03515 6.60779 8.52229C6.88925 8.26486 7.1521 7.99813 7.40755 7.7389L7.40757 7.73888L7.48917 7.65611C7.54235 7.60293 7.59553 7.54879 7.64872 7.49466C7.70191 7.44052 7.7551 7.38638 7.80829 7.33319C8.60608 6.5354 8.60608 5.50206 7.80829 4.70427L6.77115 3.66714L6.77113 3.66711C6.65337 3.54935 6.53181 3.42779 6.41784 3.30623C6.1899 3.07069 5.95056 2.82755 5.70363 2.59961C5.33512 2.2349 4.89444 2.04115 4.43095 2.04115C3.96747 2.04115 3.51919 2.2349 3.13929 2.59961L3.13169 2.60721L1.84002 3.91027C1.35375 4.39655 1.07642 4.9892 1.01563 5.67682C0.924456 6.78613 1.25117 7.81947 1.50191 8.49569C2.11735 10.1559 3.03671 11.6945 4.40816 13.3432C6.07213 15.3301 8.07422 16.8991 10.3612 18.0046C11.235 18.4187 12.4013 18.9088 13.7044 18.9924C13.7842 18.9962 13.8677 19 13.9437 19C14.8213 19 15.5583 18.6847 16.1357 18.0578C16.1376 18.054 16.1405 18.0512 16.1433 18.0483C16.1449 18.0468 16.1464 18.0453 16.1478 18.0436C16.149 18.0421 16.1501 18.0406 16.1509 18.0388C16.3339 17.8172 16.5428 17.6152 16.7628 17.4025L16.8158 17.3512C16.9791 17.1955 17.1463 17.0321 17.3096 16.8611C17.6857 16.4698 17.8833 16.014 17.8833 15.5467C17.8833 15.0756 17.6819 14.6235 17.2982 14.2436L15.2126 12.1504ZM16.1958 16.5298L16.1958 16.5299L16.1092 16.6142C15.8622 16.8497 15.6115 17.0967 15.3759 17.374C14.9922 17.7843 14.5402 17.9781 13.9475 17.9781C13.8905 17.9781 13.8297 17.9781 13.7728 17.9743C12.6444 17.9021 11.5959 17.4614 10.8095 17.0853C8.65927 16.0444 6.77115 14.5665 5.20216 12.6936C3.90669 11.1322 3.04051 9.68859 2.46686 8.13859C2.11355 7.19263 1.98438 6.45562 2.04137 5.7604C2.07936 5.31591 2.25032 4.94741 2.56563 4.63209L3.8611 3.33662C4.04725 3.16187 4.2448 3.06689 4.43855 3.06689C4.67789 3.06689 4.87164 3.21125 4.99321 3.33282L5.00461 3.34422C5.23635 3.56076 5.45669 3.7849 5.68843 4.02424C5.74778 4.0855 5.80809 4.14676 5.86887 4.20851C5.92872 4.2693 5.98903 4.33055 6.04934 4.39275L7.08647 5.42988C7.48917 5.83258 7.48917 6.20488 7.08647 6.60758C7.04961 6.64444 7.01317 6.6813 6.97688 6.71802C6.90469 6.79105 6.83306 6.86351 6.75976 6.93429C6.44064 7.26101 6.13672 7.56493 5.8062 7.86126C5.80351 7.86395 5.80082 7.86616 5.79829 7.86824L5.79829 7.86824C5.79369 7.87202 5.78966 7.87535 5.78721 7.88025C5.46049 8.20697 5.52127 8.52609 5.58966 8.74263L5.60105 8.77682C5.87078 9.43025 6.25069 10.0457 6.82814 10.7789L6.83194 10.7827C7.88047 12.0744 8.98598 13.0811 10.2055 13.8523C10.3612 13.9511 10.5208 14.0309 10.6728 14.1069L10.6728 14.1069C10.8095 14.1752 10.9387 14.2398 11.0489 14.3082C11.0565 14.312 11.064 14.3167 11.0716 14.3215C11.0792 14.3262 11.0868 14.331 11.0944 14.3348C11.2236 14.3994 11.3452 14.4298 11.4705 14.4298C11.7859 14.4298 11.9834 14.2322 12.048 14.1676L13.3473 12.8684C13.4764 12.7392 13.6816 12.5834 13.9209 12.5834C14.1565 12.5834 14.3502 12.7316 14.468 12.8608L14.4756 12.8684L16.5688 14.9616C16.9601 15.3491 16.9601 15.748 16.5726 16.1507C16.451 16.2817 16.3268 16.4025 16.1958 16.5298ZM10.7145 5.28172C11.7099 5.44888 12.614 5.91996 13.3359 6.64177C14.0577 7.36358 14.525 8.26775 14.6959 9.2631C14.7377 9.51383 14.9542 9.68859 15.2012 9.68859C15.2285 9.68859 15.2528 9.68552 15.2795 9.68214L15.2795 9.68213L15.2886 9.68099C15.5697 9.6354 15.7558 9.36947 15.7103 9.08834C15.5051 7.88405 14.9353 6.78613 14.0653 5.91616C13.1953 5.04618 12.0974 4.47633 10.8931 4.27118C10.612 4.22559 10.3498 4.41174 10.3004 4.68907C10.2511 4.9664 10.4334 5.23613 10.7145 5.28172Z"/>
</mask>
<path fill-rule="evenodd" clip-rule="evenodd" d="M16.2573 3.71652C17.6933 5.15255 18.6279 6.95709 18.966 8.94018C19.0154 9.21751 18.8255 9.48344 18.5481 9.52523C18.5451 9.52561 18.542 9.526 18.539 9.52638C18.5123 9.52976 18.4881 9.53283 18.4607 9.53283C18.2138 9.53283 17.9973 9.35807 17.9555 9.10734C17.6554 7.33699 16.8196 5.72241 15.5355 4.43834C14.2514 3.15807 12.6368 2.31848 10.8665 2.01836C10.5854 1.96897 10.3992 1.70684 10.4448 1.42571C10.4942 1.14838 10.7563 0.958432 11.0337 1.00782C13.0167 1.34593 14.8213 2.28049 16.2573 3.71652ZM15.2126 12.1504C14.8441 11.7667 14.3996 11.5615 13.9285 11.5615C13.4612 11.5615 13.0129 11.7629 12.6292 12.1466L11.4288 13.3432C11.3635 13.3081 11.2982 13.2746 11.234 13.2417C11.2011 13.2248 11.1684 13.208 11.1362 13.1913C10.9995 13.1229 10.8703 13.0583 10.7601 12.9899C9.63562 12.2757 8.61368 11.345 7.63353 10.1407C7.15865 9.54042 6.83954 9.03515 6.60779 8.52229C6.88925 8.26486 7.1521 7.99813 7.40755 7.7389L7.40757 7.73888L7.48917 7.65611C7.54235 7.60293 7.59553 7.54879 7.64872 7.49466C7.70191 7.44052 7.7551 7.38638 7.80829 7.33319C8.60608 6.5354 8.60608 5.50206 7.80829 4.70427L6.77115 3.66714L6.77113 3.66711C6.65337 3.54935 6.53181 3.42779 6.41784 3.30623C6.1899 3.07069 5.95056 2.82755 5.70363 2.59961C5.33512 2.2349 4.89444 2.04115 4.43095 2.04115C3.96747 2.04115 3.51919 2.2349 3.13929 2.59961L3.13169 2.60721L1.84002 3.91027C1.35375 4.39655 1.07642 4.9892 1.01563 5.67682C0.924456 6.78613 1.25117 7.81947 1.50191 8.49569C2.11735 10.1559 3.03671 11.6945 4.40816 13.3432C6.07213 15.3301 8.07422 16.8991 10.3612 18.0046C11.235 18.4187 12.4013 18.9088 13.7044 18.9924C13.7842 18.9962 13.8677 19 13.9437 19C14.8213 19 15.5583 18.6847 16.1357 18.0578C16.1376 18.054 16.1405 18.0512 16.1433 18.0483C16.1449 18.0468 16.1464 18.0453 16.1478 18.0436C16.149 18.0421 16.1501 18.0406 16.1509 18.0388C16.3339 17.8172 16.5428 17.6152 16.7628 17.4025L16.8158 17.3512C16.9791 17.1955 17.1463 17.0321 17.3096 16.8611C17.6857 16.4698 17.8833 16.014 17.8833 15.5467C17.8833 15.0756 17.6819 14.6235 17.2982 14.2436L15.2126 12.1504ZM16.1958 16.5298L16.1958 16.5299L16.1092 16.6142C15.8622 16.8497 15.6115 17.0967 15.3759 17.374C14.9922 17.7843 14.5402 17.9781 13.9475 17.9781C13.8905 17.9781 13.8297 17.9781 13.7728 17.9743C12.6444 17.9021 11.5959 17.4614 10.8095 17.0853C8.65927 16.0444 6.77115 14.5665 5.20216 12.6936C3.90669 11.1322 3.04051 9.68859 2.46686 8.13859C2.11355 7.19263 1.98438 6.45562 2.04137 5.7604C2.07936 5.31591 2.25032 4.94741 2.56563 4.63209L3.8611 3.33662C4.04725 3.16187 4.2448 3.06689 4.43855 3.06689C4.67789 3.06689 4.87164 3.21125 4.99321 3.33282L5.00461 3.34422C5.23635 3.56076 5.45669 3.7849 5.68843 4.02424C5.74778 4.0855 5.80809 4.14676 5.86887 4.20851C5.92872 4.2693 5.98903 4.33055 6.04934 4.39275L7.08647 5.42988C7.48917 5.83258 7.48917 6.20488 7.08647 6.60758C7.04961 6.64444 7.01317 6.6813 6.97688 6.71802C6.90469 6.79105 6.83306 6.86351 6.75976 6.93429C6.44064 7.26101 6.13672 7.56493 5.8062 7.86126C5.80351 7.86395 5.80082 7.86616 5.79829 7.86824L5.79829 7.86824C5.79369 7.87202 5.78966 7.87535 5.78721 7.88025C5.46049 8.20697 5.52127 8.52609 5.58966 8.74263L5.60105 8.77682C5.87078 9.43025 6.25069 10.0457 6.82814 10.7789L6.83194 10.7827C7.88047 12.0744 8.98598 13.0811 10.2055 13.8523C10.3612 13.9511 10.5208 14.0309 10.6728 14.1069L10.6728 14.1069C10.8095 14.1752 10.9387 14.2398 11.0489 14.3082C11.0565 14.312 11.064 14.3167 11.0716 14.3215C11.0792 14.3262 11.0868 14.331 11.0944 14.3348C11.2236 14.3994 11.3452 14.4298 11.4705 14.4298C11.7859 14.4298 11.9834 14.2322 12.048 14.1676L13.3473 12.8684C13.4764 12.7392 13.6816 12.5834 13.9209 12.5834C14.1565 12.5834 14.3502 12.7316 14.468 12.8608L14.4756 12.8684L16.5688 14.9616C16.9601 15.3491 16.9601 15.748 16.5726 16.1507C16.451 16.2817 16.3268 16.4025 16.1958 16.5298ZM10.7145 5.28172C11.7099 5.44888 12.614 5.91996 13.3359 6.64177C14.0577 7.36358 14.525 8.26775 14.6959 9.2631C14.7377 9.51383 14.9542 9.68859 15.2012 9.68859C15.2285 9.68859 15.2528 9.68552 15.2795 9.68214L15.2795 9.68213L15.2886 9.68099C15.5697 9.6354 15.7558 9.36947 15.7103 9.08834C15.5051 7.88405 14.9353 6.78613 14.0653 5.91616C13.1953 5.04618 12.0974 4.47633 10.8931 4.27118C10.612 4.22559 10.3498 4.41174 10.3004 4.68907C10.2511 4.9664 10.4334 5.23613 10.7145 5.28172Z" fill="white"/>
<path d="M18.966 8.94018L18.8428 8.96119L18.843 8.96209L18.966 8.94018ZM16.2573 3.71652L16.3457 3.62813L16.3457 3.62813L16.2573 3.71652ZM18.5481 9.52523L18.5637 9.6493L18.5668 9.64883L18.5481 9.52523ZM18.539 9.52638L18.5547 9.65039L18.5548 9.65038L18.539 9.52638ZM17.9555 9.10734L18.0788 9.08679L18.0787 9.08644L17.9555 9.10734ZM15.5355 4.43834L15.6239 4.34995L15.6238 4.34982L15.5355 4.43834ZM10.8665 2.01836L10.8449 2.14148L10.8456 2.1416L10.8665 2.01836ZM10.4448 1.42571L10.3217 1.40379L10.3214 1.4057L10.4448 1.42571ZM11.0337 1.00782L11.0117 1.13089L11.0126 1.13104L11.0337 1.00782ZM15.2126 12.1504L15.1224 12.237L15.124 12.2386L15.2126 12.1504ZM12.6292 12.1466L12.7175 12.2351L12.7176 12.2349L12.6292 12.1466ZM11.4288 13.3432L11.3695 13.4533L11.4512 13.4973L11.517 13.4318L11.4288 13.3432ZM11.234 13.2417L11.2911 13.1305L11.2911 13.1305L11.234 13.2417ZM11.1362 13.1913L11.1939 13.0804L11.1921 13.0795L11.1362 13.1913ZM10.7601 12.9899L10.6931 13.0955L10.6942 13.0961L10.7601 12.9899ZM7.63353 10.1407L7.53549 10.2182L7.53658 10.2196L7.63353 10.1407ZM6.60779 8.52229L6.52343 8.43005L6.45658 8.49119L6.49388 8.57376L6.60779 8.52229ZM7.40755 7.7389L7.31916 7.65051L7.31851 7.65117L7.40755 7.7389ZM7.40757 7.73888L7.49596 7.82727L7.49659 7.82664L7.40757 7.73888ZM7.48917 7.65611L7.40078 7.56772L7.40015 7.56835L7.48917 7.65611ZM7.64872 7.49466L7.55955 7.40706L7.55955 7.40706L7.64872 7.49466ZM7.80829 4.70427L7.7199 4.79266L7.7199 4.79266L7.80829 4.70427ZM6.77115 3.66714L6.68132 3.75407L6.68276 3.75552L6.77115 3.66714ZM6.77113 3.66711L6.86097 3.58017L6.85952 3.57872L6.77113 3.66711ZM6.41784 3.30623L6.50905 3.22072L6.50767 3.2193L6.41784 3.30623ZM5.70363 2.59961L5.61564 2.68851L5.61884 2.69146L5.70363 2.59961ZM3.13929 2.59961L3.0527 2.50942L3.0509 2.51122L3.13929 2.59961ZM3.13169 2.60721L3.0433 2.51882L3.04291 2.51921L3.13169 2.60721ZM1.84002 3.91027L1.92841 3.99866L1.9288 3.99827L1.84002 3.91027ZM1.01563 5.67682L0.891116 5.66581L0.891053 5.66658L1.01563 5.67682ZM1.50191 8.49569L1.61911 8.45224L1.61911 8.45224L1.50191 8.49569ZM4.40816 13.3432L4.31206 13.4232L4.31233 13.4235L4.40816 13.3432ZM10.3612 18.0046L10.3068 18.1172L10.3077 18.1176L10.3612 18.0046ZM13.7044 18.9924L13.6964 19.1172L13.6984 19.1173L13.7044 18.9924ZM16.1357 18.0578L16.2277 18.1425L16.2397 18.1295L16.2476 18.1137L16.1357 18.0578ZM16.1478 18.0436L16.0513 17.9642L16.0513 17.9642L16.1478 18.0436ZM16.1509 18.0388L16.0545 17.9593L16.0455 17.9702L16.0391 17.9829L16.1509 18.0388ZM16.7628 17.4025L16.8497 17.4923L16.8497 17.4923L16.7628 17.4025ZM16.8158 17.3512L16.7295 17.2607L16.7289 17.2614L16.8158 17.3512ZM17.3096 16.8611L17.2195 16.7745L17.2193 16.7748L17.3096 16.8611ZM17.2982 14.2436L17.2097 14.3318L17.2103 14.3324L17.2982 14.2436ZM16.1958 16.5299L16.283 16.6194L16.2842 16.6183L16.1958 16.5299ZM16.1958 16.5298L16.1086 16.4402L16.1074 16.4415L16.1958 16.5298ZM16.1092 16.6142L16.1954 16.7047L16.1964 16.7038L16.1092 16.6142ZM15.3759 17.374L15.4673 17.4595L15.4712 17.4549L15.3759 17.374ZM13.7728 17.9743L13.7811 17.8495L13.7807 17.8495L13.7728 17.9743ZM10.8095 17.0853L10.755 17.1978L10.7556 17.1981L10.8095 17.0853ZM5.20216 12.6936L5.10596 12.7734L5.10634 12.7739L5.20216 12.6936ZM2.46686 8.13859L2.58409 8.0952L2.58396 8.09485L2.46686 8.13859ZM2.04137 5.7604L1.91682 5.74975L1.91679 5.75019L2.04137 5.7604ZM2.56563 4.63209L2.65402 4.72048L2.65402 4.72048L2.56563 4.63209ZM3.8611 3.33662L3.7755 3.24544L3.77271 3.24823L3.8611 3.33662ZM4.99321 3.33282L5.0816 3.24443L5.0816 3.24443L4.99321 3.33282ZM5.00461 3.34422L4.91617 3.43266L4.91926 3.43555L5.00461 3.34422ZM5.68843 4.02424L5.59863 4.1112L5.59865 4.11122L5.68843 4.02424ZM5.86887 4.20851L5.7798 4.2962L5.7798 4.2962L5.86887 4.20851ZM6.04934 4.39275L5.95959 4.47978L5.96095 4.48114L6.04934 4.39275ZM6.97688 6.71802L7.06578 6.8059L7.06578 6.8059L6.97688 6.71802ZM6.75976 6.93429L6.67289 6.84433L6.67033 6.84695L6.75976 6.93429ZM5.8062 7.86126L5.72263 7.76805L5.71781 7.77287L5.8062 7.86126ZM5.79829 7.86824L5.71849 7.77126L5.70991 7.77985L5.79829 7.86824ZM5.79829 7.86824L5.87808 7.96523L5.88668 7.95663L5.79829 7.86824ZM5.78721 7.88025L5.87559 7.96864L5.88994 7.95429L5.89901 7.93615L5.78721 7.88025ZM5.58966 8.74263L5.47044 8.78028L5.47107 8.78216L5.58966 8.74263ZM5.60105 8.77682L5.48218 8.81645L5.48551 8.82452L5.60105 8.77682ZM6.82814 10.7789L6.72994 10.8562L6.73451 10.8621L6.73974 10.8673L6.82814 10.7789ZM6.83194 10.7827L6.92951 10.7035L6.92033 10.6943L6.83194 10.7827ZM10.2055 13.8523L10.2724 13.7468L10.2723 13.7467L10.2055 13.8523ZM10.6728 14.1069L10.7373 13.9993L10.7287 13.995L10.6728 14.1069ZM10.6728 14.1069L10.6083 14.2144L10.6169 14.2187L10.6728 14.1069ZM11.0489 14.3082L10.9827 14.4149L10.993 14.42L11.0489 14.3082ZM11.0716 14.3215L11.1379 14.2155L11.1379 14.2155L11.0716 14.3215ZM11.0944 14.3348L11.1503 14.223L11.1503 14.223L11.0944 14.3348ZM14.468 12.8608L14.3755 12.9451L14.3796 12.9492L14.468 12.8608ZM14.4756 12.8684L14.3872 12.9568L14.3872 12.9568L14.4756 12.8684ZM16.5688 14.9616L16.4804 15.05L16.4809 15.0504L16.5688 14.9616ZM16.5726 16.1507L16.4825 16.064L16.481 16.0657L16.5726 16.1507ZM13.3359 6.64177L13.4243 6.55338L13.4243 6.55338L13.3359 6.64177ZM10.7145 5.28172L10.7352 5.15844L10.7345 5.15833L10.7145 5.28172ZM14.6959 9.2631L14.8192 9.24255L14.8191 9.24194L14.6959 9.2631ZM15.2795 9.68214L15.2952 9.80647L15.304 9.80471L15.2795 9.68214ZM15.2795 9.68213L15.2638 9.5578L15.255 9.55956L15.2795 9.68213ZM15.2886 9.68099L15.3042 9.80508L15.3086 9.80438L15.2886 9.68099ZM15.7103 9.08834L15.8336 9.06833L15.8335 9.06735L15.7103 9.08834ZM14.0653 5.91616L14.1537 5.82777L14.1537 5.82777L14.0653 5.91616ZM10.8931 4.27118L10.9141 4.14795L10.9131 4.14779L10.8931 4.27118ZM10.3004 4.68907L10.4235 4.71099L10.4235 4.71099L10.3004 4.68907ZM19.0892 8.91917C18.7467 6.91036 17.7999 5.08234 16.3457 3.62813L16.1689 3.80491C17.5868 5.22277 18.5091 7.00381 18.8428 8.96119L19.0892 8.91917ZM18.5668 9.64883C18.9142 9.59648 19.1507 9.26431 19.0891 8.91826L18.843 8.96209C18.8801 9.1707 18.7367 9.3704 18.5295 9.40162L18.5668 9.64883ZM18.5548 9.65038C18.5578 9.65 18.5607 9.64963 18.5636 9.64926L18.5326 9.4012C18.5294 9.40159 18.5263 9.40199 18.5233 9.40237L18.5548 9.65038ZM18.4607 9.65783C18.4971 9.65783 18.5289 9.65366 18.5547 9.65039L18.5233 9.40236C18.4958 9.40585 18.479 9.40783 18.4607 9.40783V9.65783ZM17.8322 9.12789C17.8843 9.44085 18.1547 9.65783 18.4607 9.65783V9.40783C18.2729 9.40783 18.1102 9.27529 18.0788 9.08679L17.8322 9.12789ZM15.4471 4.52673C16.713 5.79263 17.5365 7.38369 17.8322 9.12823L18.0787 9.08644C17.7742 7.29029 16.9261 5.65218 15.6239 4.34995L15.4471 4.52673ZM10.8456 2.1416C12.59 2.43732 14.1812 3.26453 15.4472 4.52686L15.6238 4.34982C14.3217 3.0516 12.6837 2.19964 10.8874 1.89512L10.8456 2.1416ZM10.3214 1.4057C10.2649 1.75436 10.4964 2.08026 10.8449 2.14147L10.8881 1.89524C10.6743 1.85769 10.5336 1.65932 10.5682 1.44572L10.3214 1.4057ZM11.0556 0.884755C10.7077 0.822809 10.3828 1.06109 10.3217 1.4038L10.5679 1.44763C10.6056 1.23568 10.8049 1.09405 11.0117 1.13088L11.0556 0.884755ZM16.3457 3.62813C14.8915 2.17393 13.0635 1.22709 11.0547 0.884597L11.0126 1.13104C12.97 1.46477 14.7511 2.38705 16.1689 3.80491L16.3457 3.62813ZM13.9285 11.6865C14.3607 11.6865 14.7739 11.874 15.1224 12.2369L15.3027 12.0638C14.9143 11.6593 14.4385 11.4365 13.9285 11.4365V11.6865ZM12.7176 12.2349C13.0819 11.8707 13.4996 11.6865 13.9285 11.6865V11.4365C13.4228 11.4365 12.944 11.655 12.5409 12.0582L12.7176 12.2349ZM11.517 13.4318L12.7175 12.2351L12.541 12.058L11.3405 13.2547L11.517 13.4318ZM11.1769 13.3529C11.2413 13.3859 11.3055 13.4188 11.3695 13.4533L11.488 13.2332C11.4215 13.1973 11.3551 13.1633 11.2911 13.1305L11.1769 13.3529ZM11.0786 13.3022C11.1111 13.3191 11.1441 13.336 11.1769 13.3529L11.2911 13.1305C11.2581 13.1135 11.2257 13.0969 11.1939 13.0804L11.0786 13.3022ZM10.6942 13.0961C10.8102 13.1681 10.9449 13.2354 11.0803 13.3031L11.1921 13.0795C11.054 13.0104 10.9304 12.9485 10.826 12.8837L10.6942 13.0961ZM7.53658 10.2196C8.52386 11.4326 9.55558 12.373 10.6931 13.0955L10.8271 12.8844C9.71565 12.1785 8.7035 11.2573 7.73048 10.0618L7.53658 10.2196ZM6.49388 8.57376C6.73097 9.09845 7.05626 9.61246 7.5355 10.2182L7.73156 10.0631C7.26105 9.46839 6.9481 8.97186 6.72171 8.47082L6.49388 8.57376ZM7.31851 7.65117C7.06273 7.91073 6.80211 8.17516 6.52343 8.43005L6.69216 8.61452C6.97639 8.35456 7.24147 8.08553 7.49658 7.82664L7.31851 7.65117ZM7.31918 7.65049L7.31916 7.65051L7.49594 7.82729L7.49596 7.82727L7.31918 7.65049ZM7.40015 7.56835L7.31855 7.65112L7.49659 7.82664L7.57819 7.74386L7.40015 7.56835ZM7.55955 7.40706C7.5063 7.46126 7.45351 7.51499 7.40078 7.56772L7.57756 7.7445C7.6312 7.69086 7.68477 7.63633 7.73788 7.58226L7.55955 7.40706ZM7.7199 7.2448C7.66625 7.29845 7.61267 7.35299 7.55955 7.40706L7.73788 7.58226C7.79114 7.52806 7.84394 7.47431 7.89667 7.42158L7.7199 7.2448ZM7.7199 4.79266C8.09936 5.17212 8.28163 5.59936 8.28163 6.01873C8.28163 6.4381 8.09936 6.86534 7.7199 7.2448L7.89667 7.42158C8.31501 7.00325 8.53163 6.51493 8.53163 6.01873C8.53163 5.52253 8.31501 5.03422 7.89667 4.61588L7.7199 4.79266ZM6.68276 3.75552L7.7199 4.79266L7.89667 4.61588L6.85954 3.57875L6.68276 3.75552ZM6.68131 3.75404L6.68133 3.75406L6.86098 3.58021L6.86096 3.58019L6.68131 3.75404ZM6.32665 3.39172C6.44223 3.51501 6.56524 3.638 6.68274 3.7555L6.85952 3.57872C6.7415 3.4607 6.62138 3.34057 6.50904 3.22074L6.32665 3.39172ZM5.61884 2.69146C5.86306 2.91689 6.10038 3.15793 6.32802 3.39316L6.50767 3.2193C6.27943 2.98345 6.03807 2.73821 5.78841 2.50776L5.61884 2.69146ZM4.43095 2.16615C4.85738 2.16615 5.26749 2.34384 5.6157 2.68845L5.79156 2.51076C5.40275 2.12597 4.93149 1.91615 4.43095 1.91615V2.16615ZM3.22585 2.68978C3.58589 2.34414 4.00419 2.16615 4.43095 2.16615V1.91615C3.93076 1.91615 3.45248 2.12566 3.05272 2.50944L3.22585 2.68978ZM3.22008 2.6956L3.22768 2.688L3.0509 2.51122L3.0433 2.51882L3.22008 2.6956ZM1.9288 3.99827L3.22046 2.69521L3.04291 2.51921L1.75124 3.82227L1.9288 3.99827ZM1.14015 5.68783C1.19835 5.02946 1.46287 4.4642 1.92841 3.99866L1.75163 3.82188C1.24462 4.3289 0.954488 4.94893 0.891118 5.66581L1.14015 5.68783ZM1.61911 8.45224C1.36981 7.77988 1.05137 6.76796 1.14021 5.68706L0.891053 5.66658C0.79754 6.80431 1.13253 7.85905 1.3847 8.53915L1.61911 8.45224ZM4.50426 13.2633C3.14013 11.6233 2.22878 10.0968 1.61911 8.45224L1.3847 8.53914C2.00592 10.2149 2.93329 11.7656 4.31206 13.4232L4.50426 13.2633ZM10.4156 17.8921C8.14494 16.7945 6.15687 15.2366 4.50399 13.263L4.31233 13.4235C5.9874 15.4236 8.0035 17.0038 10.3068 18.1172L10.4156 17.8921ZM13.7124 18.8677C12.434 18.7857 11.2856 18.3044 10.4148 17.8917L10.3077 18.1176C11.1844 18.5331 12.3686 19.032 13.6964 19.1171L13.7124 18.8677ZM13.9437 18.875C13.8712 18.875 13.7905 18.8714 13.7103 18.8675L13.6984 19.1173C13.7778 19.121 13.8643 19.125 13.9437 19.125V18.875ZM16.0438 17.9731C15.491 18.5733 14.7878 18.875 13.9437 18.875V19.125C14.8548 19.125 15.6256 18.7961 16.2277 18.1425L16.0438 17.9731ZM16.055 17.9599C16.0541 17.9608 16.0363 17.9772 16.0239 18.0019L16.2476 18.1137C16.2429 18.1231 16.2378 18.1298 16.2346 18.1335C16.232 18.1366 16.2297 18.1388 16.2317 18.1367L16.055 17.9599ZM16.0513 17.9642C16.0531 17.962 16.0545 17.9604 16.0551 17.9598C16.0556 17.9593 16.0559 17.959 16.055 17.9599L16.2317 18.1367C16.2326 18.1359 16.2385 18.1301 16.2444 18.123L16.0513 17.9642ZM16.0391 17.9829C16.0435 17.9743 16.0481 17.968 16.0513 17.9642L16.2443 18.123C16.2499 18.1163 16.2567 18.1069 16.2627 18.0947L16.0391 17.9829ZM16.6759 17.3126C16.4569 17.5244 16.2427 17.7313 16.0545 17.9593L16.2473 18.1184C16.425 17.9032 16.6288 17.706 16.8497 17.4923L16.6759 17.3126ZM16.7289 17.2614L16.6759 17.3126L16.8497 17.4923L16.9027 17.4411L16.7289 17.2614ZM17.2193 16.7748C17.0578 16.9438 16.8922 17.1057 16.7295 17.2607L16.902 17.4417C17.0661 17.2853 17.2348 17.1204 17.4 16.9475L17.2193 16.7748ZM17.7583 15.5467C17.7583 15.9768 17.5769 16.4027 17.2195 16.7745L17.3998 16.9478C17.7946 16.5369 18.0083 16.0511 18.0083 15.5467H17.7583ZM17.2103 14.3324C17.5737 14.6923 17.7583 15.1135 17.7583 15.5467H18.0083C18.0083 15.0377 17.7902 14.5548 17.3862 14.1548L17.2103 14.3324ZM15.124 12.2386L17.2097 14.3318L17.3868 14.1554L15.3011 12.0621L15.124 12.2386ZM16.2842 16.6183L16.2842 16.6182L16.1074 16.4415L16.1074 16.4415L16.2842 16.6183ZM16.1964 16.7038L16.283 16.6194L16.1086 16.4403L16.0219 16.5247L16.1964 16.7038ZM15.4712 17.4549C15.7024 17.1828 15.9492 16.9395 16.1954 16.7047L16.0229 16.5238C15.7752 16.76 15.5206 17.0106 15.2807 17.2931L15.4712 17.4549ZM13.9475 18.1031C14.5733 18.1031 15.0589 17.896 15.4672 17.4594L15.2846 17.2886C14.9256 17.6726 14.5071 17.8531 13.9475 17.8531V18.1031ZM13.7644 18.099C13.8263 18.1031 13.8913 18.1031 13.9475 18.1031V17.8531C13.8897 17.8531 13.8332 17.853 13.7811 17.8495L13.7644 18.099ZM10.7556 17.1981C11.5448 17.5755 12.6114 18.0252 13.7648 18.099L13.7807 17.8495C12.6775 17.7789 11.6471 17.3473 10.8634 16.9725L10.7556 17.1981ZM5.10634 12.7739C6.68644 14.6601 8.58856 16.149 10.755 17.1978L10.864 16.9728C8.72997 15.9397 6.85586 14.473 5.29798 12.6133L5.10634 12.7739ZM2.34963 8.18197C2.92914 9.7478 3.80342 11.2035 5.10596 12.7734L5.29836 12.6138C4.00996 11.0609 3.15188 9.62937 2.58409 8.0952L2.34963 8.18197ZM1.91679 5.75019C1.85781 6.46969 1.99251 7.22581 2.34976 8.18232L2.58396 8.09485C2.23459 7.15944 2.11096 6.44155 2.16595 5.77061L1.91679 5.75019ZM2.47725 4.5437C2.14102 4.87992 1.95732 5.27599 1.91682 5.74975L2.16591 5.77104C2.2014 5.35583 2.35961 5.01489 2.65402 4.72048L2.47725 4.5437ZM3.77271 3.24823L2.47725 4.5437L2.65402 4.72048L3.94949 3.42501L3.77271 3.24823ZM4.43855 2.94189C4.20264 2.94189 3.976 3.0573 3.77555 3.24549L3.94666 3.42775C4.1185 3.26643 4.28697 3.19189 4.43855 3.19189V2.94189ZM5.0816 3.24443C4.95226 3.11509 4.72805 2.94189 4.43855 2.94189V3.19189C4.62773 3.19189 4.79103 3.30741 4.90482 3.42121L5.0816 3.24443ZM5.093 3.25583L5.0816 3.24443L4.90482 3.42121L4.91622 3.4326L5.093 3.25583ZM5.77823 3.93729C5.54626 3.69771 5.3241 3.47168 5.08995 3.25289L4.91926 3.43555C5.14859 3.64984 5.36713 3.8721 5.59863 4.1112L5.77823 3.93729ZM5.95795 4.12081C5.8971 4.059 5.83715 3.99811 5.77821 3.93727L5.59865 4.11122C5.65841 4.1729 5.71907 4.23452 5.7798 4.2962L5.95795 4.12081ZM6.13908 4.30573C6.07838 4.24314 6.01774 4.18155 5.95795 4.12081L5.7798 4.2962C5.8397 4.35704 5.89968 4.41797 5.9596 4.47977L6.13908 4.30573ZM7.17486 5.34149L6.13773 4.30436L5.96095 4.48114L6.99808 5.51827L7.17486 5.34149ZM7.17486 6.69597C7.38809 6.48274 7.51349 6.25902 7.51349 6.01873C7.51349 5.77844 7.38809 5.55472 7.17486 5.34149L6.99808 5.51827C7.18755 5.70774 7.26349 5.87152 7.26349 6.01873C7.26349 6.16594 7.18755 6.32972 6.99808 6.51919L7.17486 6.69597ZM7.06578 6.8059C7.10211 6.76914 7.1383 6.73253 7.17486 6.69597L6.99808 6.51919C6.96092 6.55635 6.92423 6.59347 6.88798 6.63015L7.06578 6.8059ZM6.84658 7.02422C6.92111 6.95226 6.99376 6.87875 7.06578 6.8059L6.88798 6.63015C6.81562 6.70335 6.74502 6.77477 6.67293 6.84437L6.84658 7.02422ZM5.88964 7.95433C6.22333 7.65516 6.52958 7.34885 6.84918 7.02164L6.67033 6.84695C6.3517 7.17317 6.05011 7.4747 5.72276 7.76819L5.88964 7.95433ZM5.87772 7.96476C5.87985 7.96301 5.88702 7.95721 5.89459 7.94964L5.71781 7.77287C5.71999 7.77069 5.72179 7.76931 5.71887 7.77172L5.87772 7.96476ZM5.88668 7.95663L5.88668 7.95663L5.70991 7.77985L5.7099 7.77985L5.88668 7.95663ZM5.89901 7.93615C5.89279 7.94859 5.88545 7.95703 5.88094 7.9616C5.87745 7.96514 5.87436 7.96753 5.87771 7.96477L5.71887 7.77171C5.71806 7.77239 5.69171 7.79172 5.6754 7.82435L5.89901 7.93615ZM5.70885 8.70499C5.6765 8.60253 5.65037 8.48867 5.66444 8.36713C5.67812 8.24897 5.73105 8.11318 5.87559 7.96864L5.69882 7.79186C5.51664 7.97404 5.43661 8.16117 5.4161 8.33838C5.39598 8.51221 5.43443 8.66619 5.47046 8.78027L5.70885 8.70499ZM5.71964 8.73729L5.70824 8.7031L5.47107 8.78216L5.48247 8.81635L5.71964 8.73729ZM6.92634 10.7016C6.35362 9.97436 5.98068 9.36887 5.7166 8.72913L5.48551 8.82452C5.76089 9.49164 6.14776 10.117 6.72994 10.8562L6.92634 10.7016ZM6.92033 10.6943L6.91653 10.6905L6.73974 10.8673L6.74354 10.8711L6.92033 10.6943ZM10.2723 13.7467C9.06591 12.9838 7.97028 11.9867 6.92899 10.7039L6.73489 10.8615C7.79065 12.1621 8.90606 13.1785 10.1387 13.958L10.2723 13.7467ZM10.7287 13.995C10.5759 13.9187 10.422 13.8416 10.2724 13.7468L10.1385 13.9579C10.3005 14.0606 10.4656 14.143 10.6168 14.2187L10.7287 13.995ZM10.7371 13.9997L10.7371 13.9997L10.6084 14.214L10.6085 14.214L10.7371 13.9997ZM11.1148 14.202C10.9988 14.13 10.8641 14.0628 10.7287 13.9951L10.6169 14.2187C10.755 14.2877 10.8786 14.3496 10.9829 14.4144L11.1148 14.202ZM11.1379 14.2155C11.1313 14.2114 11.1186 14.2033 11.1047 14.1964L10.993 14.42C10.9943 14.4207 10.9968 14.4221 11.0054 14.4275L11.1379 14.2155ZM11.1503 14.223C11.149 14.2223 11.1465 14.2209 11.1379 14.2155L11.0054 14.4275C11.0119 14.4316 11.0247 14.4397 11.0385 14.4466L11.1503 14.223ZM11.4705 14.3048C11.3671 14.3048 11.2645 14.2801 11.1503 14.223L11.0385 14.4466C11.1827 14.5187 11.3233 14.5548 11.4705 14.5548V14.3048ZM11.9596 14.0792C11.8972 14.1417 11.7315 14.3048 11.4705 14.3048V14.5548C11.8402 14.5548 12.0696 14.3228 12.1364 14.256L11.9596 14.0792ZM13.2589 12.78L11.9596 14.0792L12.1364 14.256L13.4357 12.9568L13.2589 12.78ZM13.9209 12.4584C13.6297 12.4584 13.3936 12.6452 13.2589 12.78L13.4357 12.9568C13.5592 12.8332 13.7335 12.7084 13.9209 12.7084V12.4584ZM14.5603 12.7766C14.4334 12.6373 14.2085 12.4584 13.9209 12.4584V12.7084C14.1044 12.7084 14.267 12.8259 14.3756 12.945L14.5603 12.7766ZM14.564 12.78L14.5564 12.7724L14.3796 12.9492L14.3872 12.9568L14.564 12.78ZM16.6572 14.8732L14.564 12.78L14.3872 12.9568L16.4804 15.05L16.6572 14.8732ZM16.6627 16.2374C16.8697 16.0223 16.9884 15.7923 16.9878 15.5502C16.9872 15.3074 16.8669 15.0809 16.6568 14.8728L16.4809 15.0504C16.6621 15.2299 16.7374 15.3966 16.7378 15.5508C16.7382 15.7056 16.6631 15.8765 16.4826 16.0641L16.6627 16.2374ZM16.2829 16.6195C16.4135 16.4925 16.5401 16.3695 16.6642 16.2358L16.481 16.0657C16.3619 16.194 16.24 16.3125 16.1087 16.4402L16.2829 16.6195ZM13.4243 6.55338C12.6844 5.81357 11.7568 5.33 10.7352 5.15845L10.6938 5.40499C11.663 5.56775 12.5437 6.02634 13.2475 6.73016L13.4243 6.55338ZM14.8191 9.24194C14.6438 8.22105 14.1643 7.29341 13.4243 6.55338L13.2475 6.73016C13.9511 7.43376 14.4061 8.31446 14.5727 9.28426L14.8191 9.24194ZM15.2012 9.56359C15.0134 9.56359 14.8506 9.43105 14.8192 9.24255L14.5726 9.28365C14.6248 9.59661 14.8951 9.81359 15.2012 9.81359V9.56359ZM15.2638 9.55813C15.2362 9.56161 15.2195 9.56359 15.2012 9.56359V9.81359C15.2375 9.81359 15.2693 9.80942 15.2952 9.80615L15.2638 9.55813ZM15.255 9.55956L15.2549 9.55957L15.304 9.80471L15.304 9.80471L15.255 9.55956ZM15.2729 9.55697L15.2638 9.55812L15.2951 9.80615L15.3042 9.80501L15.2729 9.55697ZM15.5869 9.10835C15.6217 9.32334 15.4795 9.52338 15.2686 9.5576L15.3086 9.80438C15.6598 9.74742 15.89 9.4156 15.8336 9.06833L15.5869 9.10835ZM13.9769 6.00455C14.8287 6.85638 15.3863 7.93082 15.587 9.10933L15.8335 9.06735C15.6239 7.83728 15.0418 6.71588 14.1537 5.82777L13.9769 6.00455ZM10.8721 4.3944C12.0506 4.59516 13.1251 5.15271 13.9769 6.00455L14.1537 5.82777C13.2656 4.93965 12.1442 4.35749 10.9141 4.14796L10.8721 4.3944ZM10.4235 4.71099C10.4609 4.50128 10.659 4.35985 10.8731 4.39457L10.9131 4.14779C10.565 4.09134 10.2388 4.32221 10.1774 4.66716L10.4235 4.71099ZM10.7345 5.15833C10.5251 5.12436 10.3859 4.92238 10.4235 4.71099L10.1774 4.66716C10.1163 5.01042 10.3418 5.3479 10.6945 5.40511L10.7345 5.15833Z" fill="white" mask="url(#path-1-outside-1_413_21)"/>
</svg>
